<?xml version="1.0" encoding="utf-8"?>
<!-- Generator: Adobe Illustrator 26.5.0, SVG Export Plug-In . SVG Version: 6.00 Build 0)  -->
<svg version="1.1" id="katman_1" xmlns:svg="http://www.w3.org/2000/svg"
	 xmlns="http://www.w3.org/2000/svg" xmlns:xlink="http://www.w3.org/1999/xlink" x="0px" y="0px" viewBox="0 0 360 185"
	 style="enable-background:new 0 0 360 185;" xml:space="preserve">
<style type="text/css">
	.st0{enable-background:new    ;}
	.st1{fill:#FFFFFF;}
	.st2{fill:#E30613;}
	.st3{fill:#F4B821;}
	.st4{fill:#5F2084;}
	.st5{fill:#AA053C;}
</style>
<g class="st0">
	<path class="st1" d="M160.1,175.6c-1,0-2-0.1-2.9-0.4s-1.8-0.7-2.5-1.2c-0.8-0.5-1.4-1.2-2-2c-0.6-0.8-1-1.8-1.4-2.8l4.4-1.8
		c0.3,1.2,0.8,2.1,1.6,2.7c0.7,0.6,1.7,0.9,2.8,0.9c0.5,0,1-0.1,1.4-0.2c0.5-0.2,0.9-0.4,1.2-0.7c0.3-0.3,0.6-0.6,0.8-1
		c0.2-0.4,0.3-0.8,0.3-1.3c0-1.1-0.4-1.9-1.2-2.5c-0.8-0.6-1.9-0.9-3.2-0.9h-2.1V160h1.9c0.5,0,0.9-0.1,1.4-0.2
		c0.5-0.1,0.9-0.3,1.2-0.6c0.3-0.3,0.6-0.6,0.8-1c0.2-0.4,0.3-0.9,0.3-1.4c0-0.8-0.3-1.5-0.9-2c-0.6-0.5-1.4-0.8-2.3-0.8
		c-1.1,0-1.9,0.3-2.4,0.8c-0.6,0.6-1,1.2-1.2,1.9l-4.3-1.8c0.2-0.6,0.5-1.2,1-1.9c0.4-0.6,1-1.2,1.6-1.7c0.7-0.5,1.4-0.9,2.3-1.3
		c0.9-0.3,1.9-0.5,3.1-0.5c1.2,0,2.2,0.2,3.2,0.5c1,0.3,1.8,0.8,2.5,1.4c0.7,0.6,1.2,1.3,1.6,2.1c0.4,0.8,0.6,1.7,0.6,2.6
		c0,0.7-0.1,1.4-0.3,1.9c-0.2,0.6-0.4,1.1-0.7,1.5c-0.3,0.5-0.6,0.8-1,1.2s-0.8,0.6-1.1,0.8v0.3c1.2,0.5,2.1,1.2,2.9,2.2
		c0.8,1,1.1,2.3,1.1,3.8c0,1.1-0.2,2.1-0.6,3c-0.4,0.9-1,1.7-1.7,2.4c-0.8,0.7-1.7,1.2-2.7,1.6C162.6,175.4,161.4,175.6,160.1,175.6
		z"/>
	<path class="st1" d="M182,175.6c-1.6,0-3-0.3-4.3-1s-2.4-1.6-3.3-2.7c-0.9-1.2-1.6-2.5-2.1-4.1c-0.5-1.6-0.7-3.3-0.7-5.1
		c0-1.8,0.2-3.5,0.7-5.1c0.5-1.6,1.2-2.9,2.1-4.1c0.9-1.2,2-2.1,3.3-2.7s2.7-1,4.3-1s3,0.3,4.3,1c1.3,0.7,2.4,1.6,3.3,2.7
		c0.9,1.2,1.6,2.5,2.1,4.1c0.5,1.6,0.7,3.3,0.7,5.1c0,1.8-0.2,3.5-0.7,5.1c-0.5,1.6-1.2,2.9-2.1,4.1c-0.9,1.2-2,2.1-3.3,2.7
		C185.1,175.2,183.6,175.6,182,175.6z M182,171.1c0.9,0,1.6-0.2,2.3-0.6s1.3-1,1.8-1.8s0.9-1.6,1.1-2.7s0.4-2.1,0.4-3.3
		c0-1.2-0.1-2.3-0.4-3.4s-0.6-1.9-1.1-2.7s-1.1-1.3-1.8-1.8c-0.7-0.4-1.5-0.6-2.3-0.6c-0.9,0-1.7,0.2-2.4,0.6
		c-0.7,0.4-1.3,1-1.8,1.8c-0.5,0.8-0.8,1.6-1.1,2.7c-0.3,1-0.4,2.1-0.4,3.4c0,1.2,0.1,2.3,0.4,3.3c0.3,1,0.6,1.9,1.1,2.7
		c0.5,0.8,1.1,1.3,1.8,1.8C180.4,170.9,181.2,171.1,182,171.1z"/>
	<path class="st1" d="M205.9,175.6c-1.6,0-3-0.3-4.3-1s-2.4-1.6-3.3-2.7c-0.9-1.2-1.6-2.5-2.1-4.1c-0.5-1.6-0.7-3.3-0.7-5.1
		c0-1.8,0.2-3.5,0.7-5.1c0.5-1.6,1.2-2.9,2.1-4.1c0.9-1.2,2-2.1,3.3-2.7s2.7-1,4.3-1s3,0.3,4.3,1c1.3,0.7,2.4,1.6,3.3,2.7
		c0.9,1.2,1.6,2.5,2.1,4.1c0.5,1.6,0.7,3.3,0.7,5.1c0,1.8-0.2,3.5-0.7,5.1c-0.5,1.6-1.2,2.9-2.1,4.1c-0.9,1.2-2,2.1-3.3,2.7
		C208.9,175.2,207.5,175.6,205.9,175.6z M205.9,171.1c0.9,0,1.6-0.2,2.3-0.6c0.7-0.4,1.3-1,1.8-1.8c0.5-0.8,0.9-1.6,1.1-2.7
		s0.4-2.1,0.4-3.3c0-1.2-0.1-2.3-0.4-3.4s-0.6-1.9-1.1-2.7c-0.5-0.8-1.1-1.3-1.8-1.8c-0.7-0.4-1.5-0.6-2.3-0.6
		c-0.9,0-1.7,0.2-2.4,0.6c-0.7,0.4-1.3,1-1.8,1.8s-0.8,1.6-1.1,2.7s-0.4,2.1-0.4,3.4c0,1.2,0.1,2.3,0.4,3.3s0.6,1.9,1.1,2.7
		s1.1,1.3,1.8,1.8S205,171.1,205.9,171.1z"/>
</g>
<g id="_x30_-HDP">
</g>
<g id="_x31_-CHP">
	<circle class="st2" cx="10.2" cy="174.9" r="4.1"/>
	<circle class="st2" cx="20.5" cy="174.9" r="4.1"/>
	<circle class="st2" cx="30.8" cy="174.9" r="4.1"/>
	<circle class="st2" cx="41.1" cy="174.9" r="4.1"/>
	<circle class="st2" cx="51.4" cy="174.9" r="4.1"/>
	<circle class="st2" cx="61.7" cy="174.9" r="4.1"/>
	<circle class="st2" cx="72" cy="174.9" r="4.1"/>
	<circle class="st2" cx="82.3" cy="174.9" r="4.1"/>
	<circle class="st2" cx="92.7" cy="174.9" r="4.1"/>
	<circle class="st2" cx="11" cy="162.7" r="4.1"/>
	<circle class="st2" cx="21.4" cy="162.6" r="4.1"/>
	<circle class="st2" cx="31.7" cy="162.8" r="4.1"/>
	<circle class="st2" cx="42.1" cy="162.7" r="4.1"/>
	<circle class="st2" cx="52.5" cy="163" r="4.1"/>
	<circle class="st2" cx="62.9" cy="162.9" r="4.1"/>
	<circle class="st2" cx="73.3" cy="162.7" r="4.1"/>
	<circle class="st2" cx="12.7" cy="150.7" r="4.1"/>
	<circle class="st2" cx="83.8" cy="162.6" r="4.1"/>
	<circle class="st2" cx="23.2" cy="150.5" r="4.1"/>
	<circle class="st2" cx="33.6" cy="150.9" r="4.1"/>
	<circle class="st2" cx="94.3" cy="162.4" r="4.1"/>
	<circle class="st2" cx="44.2" cy="150.7" r="4.1"/>
	<circle class="st2" cx="54.6" cy="151.2" r="4.1"/>
	<circle class="st2" cx="15.2" cy="138.8" r="4.1"/>
	<circle class="st2" cx="65.2" cy="151" r="4.1"/>
	<circle class="st2" cx="25.9" cy="138.5" r="4.1"/>
	<circle class="st2" cx="75.9" cy="150.8" r="4.1"/>
	<circle class="st2" cx="36.4" cy="139.2" r="4.1"/>
	<circle class="st2" cx="47.2" cy="138.9" r="4.1"/>
	<circle class="st2" cx="86.7" cy="150.6" r="4.1"/>
	<circle class="st2" cx="18.6" cy="127.1" r="4.1"/>
	<circle class="st2" cx="57.8" cy="139.7" r="4.1"/>
	<circle class="st2" cx="29.6" cy="126.8" r="4.1"/>
	<circle class="st2" cx="97.7" cy="150.3" r="4.1"/>
	<circle class="st2" cx="68.8" cy="139.5" r="4.1"/>
	<circle class="st2" cx="40.2" cy="127.7" r="4.1"/>
	<circle class="st2" cx="79.9" cy="139.3" r="4.1"/>
	<circle class="st2" cx="51.3" cy="127.5" r="4.1"/>
	<circle class="st2" cx="22.8" cy="115.7" r="4.1"/>
	<circle class="st2" cx="62" cy="128.6" r="4.1"/>
	<circle class="st2" cx="34.1" cy="115.4" r="4.1"/>
	<circle class="st2" cx="91.2" cy="139" r="4.1"/>
	<circle class="st2" cx="44.9" cy="116.6" r="4.1"/>
	<circle class="st2" cx="73.4" cy="128.4" r="4.1"/>
	<circle class="st2" cx="27.8" cy="104.6" r="4.1"/>
	<circle class="st2" cx="56.4" cy="116.4" r="4.1"/>
	<circle class="st2" cx="102.8" cy="138.8" r="4.1"/>
	<circle class="st2" cx="39.5" cy="104.4" r="4.1"/>
	<circle class="st2" cx="85.1" cy="128.3" r="4.1"/>
	<circle class="st2" cx="67.3" cy="117.9" r="4.1"/>
	<circle class="st2" cx="50.4" cy="105.9" r="4.1"/>
	<circle class="st2" cx="33.6" cy="93.9" r="4.1"/>
	<circle class="st2" cx="79.2" cy="117.9" r="4.1"/>
	<circle class="st2" cx="97.1" cy="128.2" r="4.1"/>
	<circle class="st2" cx="62.5" cy="105.8" r="4.1"/>
	<circle class="st2" cx="45.7" cy="93.8" r="4.1"/>
	<circle class="st2" cx="73.6" cy="107.7" r="4.1"/>
	<circle class="st2" cx="56.8" cy="95.7" r="4.1"/>
	<circle class="st2" cx="40.2" cy="83.6" r="4.1"/>
	<circle class="st2" cx="91.5" cy="117.9" r="4.1"/>
	<circle class="st2" cx="109.6" cy="128.1" r="4.1"/>
	<circle class="st2" cx="52.8" cy="83.7" r="4.1"/>
	<circle class="st2" cx="69.4" cy="95.8" r="4.1"/>
	<circle class="st2" cx="86.1" cy="107.9" r="4.1"/>
	<circle class="st2" cx="47.4" cy="73.8" r="4.1"/>
	<circle class="st2" cx="64.1" cy="86" r="4.1"/>
	<circle class="st2" cx="104.3" cy="118.1" r="4.1"/>
	<circle class="st2" cx="80.7" cy="98.2" r="4.1"/>
	<circle class="st2" cx="99.1" cy="108.4" r="4.1"/>
	<circle class="st2" cx="60.5" cy="74.2" r="4.1"/>
	<circle class="st2" cx="77.2" cy="86.5" r="4.1"/>
	<circle class="st2" cx="55.3" cy="64.6" r="4.1"/>
	<circle class="st2" cx="93.9" cy="98.8" r="4.1"/>
	<circle class="st2" cx="72" cy="76.9" r="4.1"/>
	<circle class="st2" cx="117.7" cy="118.5" r="4.1"/>
	<circle class="st2" cx="88.7" cy="89.3" r="4.1"/>
	<circle class="st2" cx="69" cy="65.4" r="4.1"/>
	<circle class="st2" cx="112.7" cy="109.1" r="4.1"/>
	<circle class="st2" cx="63.9" cy="56" r="4.1"/>
	<circle class="st2" cx="85.8" cy="77.8" r="4.1"/>
	<circle class="st2" cx="107.7" cy="99.7" r="4.1"/>
	<circle class="st2" cx="80.7" cy="68.6" r="4.1"/>
	<circle class="st2" cx="102.6" cy="90.4" r="4.1"/>
	<circle class="st2" cx="97.5" cy="81.2" r="4.1"/>
	<circle class="st2" cx="78.2" cy="57.2" r="4.1"/>
	<circle class="st2" cx="73.1" cy="48" r="4.1"/>
	<circle class="st2" cx="95.1" cy="70" r="4.1"/>
	<circle class="st2" cx="127.2" cy="110.2" r="4.1"/>
	<circle class="st2" cx="90" cy="60.9" r="4.1"/>
	<circle class="st2" cx="122.2" cy="101.1" r="4.1"/>
	<circle class="st2" cx="117.2" cy="92.1" r="4.1"/>
	<circle class="st2" cx="87.9" cy="49.7" r="4.1"/>
	<circle class="st2" cx="112.1" cy="83" r="4.1"/>
	<circle class="st2" cx="82.8" cy="40.7" r="4.1"/>
	<circle class="st2" cx="107" cy="74" r="4.1"/>
	<circle class="st2" cx="105" cy="63" r="4.1"/>
	<circle class="st2" cx="99.9" cy="54" r="4.1"/>
	<circle class="st2" cx="98.2" cy="43" r="4.1"/>
	<circle class="st2" cx="93.1" cy="34.1" r="4.1"/>
	<circle class="st2" cx="117.2" cy="67.7" r="4.1"/>
	<circle class="st2" cx="122.3" cy="76.6" r="4.1"/>
	<circle class="st2" cx="127.4" cy="85.6" r="4.1"/>
	<circle class="st2" cx="132.6" cy="94.5" r="4.1"/>
	<circle class="st2" cx="137.8" cy="103.4" r="4.1"/>
	<circle class="st2" cx="110.4" cy="48" r="4.1"/>
	<circle class="st2" cx="115.6" cy="56.9" r="4.1"/>
	<circle class="st2" cx="103.7" cy="28.2" r="4.1"/>
	<circle class="st2" cx="108.9" cy="37.1" r="4.1"/>
	<circle class="st2" cx="127.8" cy="62.4" r="4.1"/>
	<circle class="st2" cx="133.1" cy="71.3" r="4.1"/>
	<circle class="st2" cx="121.3" cy="42.8" r="4.1"/>
</g>
<g id="_x32_-H-RR-YET">
	<circle class="st3" cx="138.4" cy="80.2" r="4.1"/>
	<circle class="st3" cx="126.6" cy="51.7" r="4.1"/>
	<circle class="st3" cx="114.8" cy="23.2" r="4.1"/>
	<circle class="st3" cx="120.1" cy="32.1" r="4.1"/>
	<circle class="st3" cx="143.8" cy="89.2" r="4.1"/>
	<circle class="st3" cx="149.2" cy="98.1" r="4.1"/>
	<circle class="st3" cx="138.9" cy="58" r="4.1"/>
	<circle class="st3" cx="132.6" cy="38.5" r="4.1"/>
	<circle class="st3" cx="126.2" cy="18.9" r="4.1"/>
	<circle class="st3" cx="131.7" cy="27.9" r="4.1"/>
	<circle class="st3" cx="138" cy="47.5" r="4.1"/>
	<circle class="st3" cx="144.4" cy="67.1" r="4.1"/>
	<circle class="st3" cx="149.9" cy="76.2" r="4.1"/>
	<circle class="st3" cx="155.5" cy="85.3" r="4.1"/>
	<circle class="st3" cx="137.9" cy="15.5" r="4.1"/>
</g>
<g id="_x33_-DEVA-PART-S-">
</g>
<g id="_x34_-DP">
	<circle class="st4" cx="144.1" cy="35.1" r="4.1"/>
	<circle class="st4" cx="150.4" cy="54.8" r="4.1"/>
	<circle class="st4" cx="143.5" cy="24.7" r="4.1"/>
	<circle class="st4" cx="149.8" cy="44.3" r="4.1"/>
	<circle class="st4" cx="161.2" cy="94.5" r="4.1"/>
	<circle class="st4" cx="156.1" cy="64.1" r="4.1"/>
	<circle class="st4" cx="149.7" cy="12.9" r="4.1"/>
	<circle class="st4" cx="161.8" cy="73.5" r="4.1"/>
	<circle class="st4" cx="156" cy="32.7" r="4.1"/>
	<circle class="st4" cx="155.6" cy="22.3" r="4.1"/>
	<circle class="st4" cx="162.1" cy="52.6" r="4.1"/>
	<circle class="st4" cx="161.8" cy="42.2" r="4.1"/>
	<circle class="st4" cx="167.7" cy="83" r="4.1"/>
	<circle class="st4" cx="161.8" cy="11.1" r="4.1"/>
	<circle class="st4" cx="168" cy="62.2" r="4.1"/>
	<circle class="st4" cx="167.9" cy="31.2" r="4.1"/>
	<circle class="st4" cx="167.7" cy="20.9" r="4.1"/>
	<circle class="st4" cx="173.7" cy="92.7" r="4.1"/>
	<circle class="st4" cx="173.9" cy="72.1" r="4.1"/>
	<circle class="st4" cx="174" cy="51.5" r="4.1"/>
	<circle class="st4" cx="173.9" cy="41.2" r="4.1"/>
	<circle class="st4" cx="173.9" cy="10.3" r="4.1"/>
	<circle class="st4" cx="180" cy="61.6" r="4.1"/>
	<circle class="st4" cx="180" cy="30.7" r="4.1"/>
	<circle class="st4" cx="180" cy="20.4" r="4.1"/>
	<circle class="st4" cx="180" cy="82.2" r="4.1"/>
	<circle class="st4" cx="186.1" cy="10.3" r="4.1"/>
	<circle class="st4" cx="186.1" cy="41.2" r="4.1"/>
	<circle class="st4" cx="186" cy="51.5" r="4.1"/>
	<circle class="st4" cx="186.1" cy="72.1" r="4.1"/>
	<circle class="st4" cx="186.3" cy="92.7" r="4.1"/>
	<circle class="st4" cx="192.3" cy="20.9" r="4.1"/>
	<circle class="st4" cx="192.1" cy="31.2" r="4.1"/>
	<circle class="st4" cx="192" cy="62.2" r="4.1"/>
	<circle class="st4" cx="198.2" cy="11.1" r="4.1"/>
	<circle class="st4" cx="192.3" cy="83" r="4.1"/>
	<circle class="st4" cx="198.2" cy="42.2" r="4.1"/>
	<circle class="st4" cx="197.9" cy="52.6" r="4.1"/>
	<circle class="st4" cx="204.4" cy="22.3" r="4.1"/>
	<circle class="st4" cx="204" cy="32.7" r="4.1"/>
	<circle class="st4" cx="198.2" cy="73.5" r="4.1"/>
	<circle class="st4" cx="210.3" cy="12.9" r="4.1"/>
	<circle class="st4" cx="203.9" cy="64.1" r="4.1"/>
	<circle class="st4" cx="198.8" cy="94.5" r="4.1"/>
	<circle class="st4" cx="210.2" cy="44.3" r="4.1"/>
	<circle class="st4" cx="216.5" cy="24.7" r="4.1"/>
	<circle class="st4" cx="209.6" cy="54.8" r="4.1"/>
	<circle class="st4" cx="215.9" cy="35.1" r="4.1"/>
	<circle class="st4" cx="222.1" cy="15.5" r="4.1"/>
	<circle class="st4" cx="204.5" cy="85.3" r="4.1"/>
	<circle class="st4" cx="210.1" cy="76.2" r="4.1"/>
	<circle class="st4" cx="215.6" cy="67.1" r="4.1"/>
	<circle class="st4" cx="222" cy="47.5" r="4.1"/>
	<circle class="st4" cx="228.3" cy="27.9" r="4.1"/>
	<circle class="st4" cx="233.8" cy="18.9" r="4.1"/>
	<circle class="st4" cx="227.4" cy="38.5" r="4.1"/>
	<circle class="st4" cx="221.1" cy="58" r="4.1"/>
	<circle class="st4" cx="210.8" cy="98.1" r="4.1"/>
	<circle class="st4" cx="216.2" cy="89.2" r="4.1"/>
	<circle class="st4" cx="239.9" cy="32.1" r="4.1"/>
	<circle class="st4" cx="245.2" cy="23.2" r="4.1"/>
	<circle class="st4" cx="233.4" cy="51.7" r="4.1"/>
	<circle class="st4" cx="221.6" cy="80.2" r="4.1"/>
	<circle class="st4" cx="238.7" cy="42.8" r="4.1"/>
	<circle class="st4" cx="226.9" cy="71.3" r="4.1"/>
	<circle class="st4" cx="232.2" cy="62.4" r="4.1"/>
	<circle class="st4" cx="251.1" cy="37.1" r="4.1"/>
	<circle class="st4" cx="256.3" cy="28.2" r="4.1"/>
	<circle class="st4" cx="244.4" cy="56.9" r="4.1"/>
	<circle class="st4" cx="249.6" cy="48" r="4.1"/>
	<circle class="st4" cx="222.2" cy="103.4" r="4.1"/>
	<circle class="st4" cx="227.4" cy="94.5" r="4.1"/>
	<circle class="st4" cx="232.6" cy="85.6" r="4.1"/>
	<circle class="st4" cx="237.7" cy="76.6" r="4.1"/>
	<circle class="st4" cx="242.9" cy="67.7" r="4.1"/>
	<circle class="st4" cx="267" cy="34.1" r="4.1"/>
	<circle class="st4" cx="261.8" cy="43" r="4.1"/>
	<circle class="st4" cx="260" cy="54" r="4.1"/>
	<ellipse transform="matrix(0.2298 -0.9732 0.9732 0.2298 135.087 296.6497)" class="st4" cx="255" cy="63" rx="4.1" ry="4.1"/>
	<circle class="st4" cx="253" cy="74" r="4.1"/>
	<circle class="st4" cx="277.2" cy="40.7" r="4.1"/>
	<circle class="st4" cx="247.9" cy="83" r="4.1"/>
	<circle class="st4" cx="272.1" cy="49.7" r="4.1"/>
	<circle class="st4" cx="242.9" cy="92.1" r="4.1"/>
	<circle class="st4" cx="237.8" cy="101.1" r="4.1"/>
	<circle class="st4" cx="270" cy="60.9" r="4.1"/>
	<circle class="st4" cx="232.8" cy="110.2" r="4.1"/>
	<circle class="st4" cx="264.9" cy="70" r="4.1"/>
	<circle class="st4" cx="286.9" cy="48" r="4.1"/>
	<circle class="st4" cx="281.9" cy="57.2" r="4.1"/>
	<circle class="st4" cx="262.5" cy="81.2" r="4.1"/>
	<circle class="st4" cx="257.4" cy="90.4" r="4.1"/>
	<circle class="st4" cx="279.3" cy="68.6" r="4.1"/>
	<circle class="st4" cx="252.4" cy="99.7" r="4.1"/>
	<circle class="st4" cx="274.2" cy="77.8" r="4.1"/>
	<circle class="st4" cx="296.1" cy="56" r="4.1"/>
	<circle class="st4" cx="247.3" cy="109.1" r="4.1"/>
	<circle class="st4" cx="291" cy="65.4" r="4.1"/>
	<circle class="st4" cx="271.3" cy="89.3" r="4.1"/>
	<circle class="st4" cx="242.3" cy="118.5" r="4.1"/>
	<circle class="st4" cx="288" cy="76.9" r="4.1"/>
	<circle class="st4" cx="266.1" cy="98.8" r="4.1"/>
	<circle class="st4" cx="304.6" cy="64.6" r="4.1"/>
	<circle class="st4" cx="282.8" cy="86.5" r="4.1"/>
	<circle class="st4" cx="299.5" cy="74.2" r="4.1"/>
	<circle class="st4" cx="260.9" cy="108.4" r="4.1"/>
	<circle class="st4" cx="279.3" cy="98.2" r="4.1"/>
	<circle class="st4" cx="255.7" cy="118.1" r="4.1"/>
	<circle class="st4" cx="295.9" cy="86" r="4.1"/>
	<circle class="st4" cx="312.6" cy="73.8" r="4.1"/>
	<circle class="st4" cx="273.9" cy="107.9" r="4.1"/>
	<circle class="st4" cx="290.6" cy="95.8" r="4.1"/>
	<circle class="st4" cx="307.2" cy="83.7" r="4.1"/>
	<circle class="st4" cx="250.4" cy="128.1" r="4.1"/>
	<circle class="st4" cx="268.5" cy="117.9" r="4.1"/>
	<circle class="st4" cx="319.9" cy="83.6" r="4.1"/>
	<circle class="st4" cx="303.1" cy="95.7" r="4.1"/>
	<circle class="st4" cx="286.4" cy="107.7" r="4.1"/>
	<circle class="st4" cx="314.3" cy="93.8" r="4.1"/>
	<circle class="st4" cx="297.5" cy="105.8" r="4.1"/>
	<circle class="st4" cx="262.9" cy="128.2" r="4.1"/>
	<circle class="st4" cx="280.8" cy="117.9" r="4.1"/>
	<circle class="st4" cx="326.4" cy="93.9" r="4.1"/>
	<circle class="st4" cx="309.6" cy="105.9" r="4.1"/>
	<circle class="st4" cx="292.7" cy="117.9" r="4.1"/>
	<circle class="st4" cx="274.9" cy="128.3" r="4.1"/>
	<circle class="st4" cx="320.5" cy="104.4" r="4.1"/>
	<circle class="st4" cx="257.2" cy="138.8" r="4.1"/>
	<circle class="st4" cx="303.6" cy="116.4" r="4.1"/>
	<circle class="st4" cx="332.2" cy="104.6" r="4.1"/>
	<circle class="st4" cx="286.6" cy="128.4" r="4.1"/>
	<circle class="st4" cx="315.1" cy="116.6" r="4.1"/>
	<circle class="st4" cx="268.8" cy="139" r="4.1"/>
	<circle class="st4" cx="325.9" cy="115.4" r="4.1"/>
	<circle class="st4" cx="298" cy="128.6" r="4.1"/>
	<circle class="st4" cx="337.2" cy="115.7" r="4.1"/>
	<circle class="st4" cx="308.7" cy="127.5" r="4.1"/>
	<circle class="st4" cx="280.1" cy="139.3" r="4.1"/>
	<circle class="st4" cx="319.8" cy="127.7" r="4.1"/>
	<circle class="st4" cx="291.2" cy="139.5" r="4.1"/>
	<circle class="st4" cx="262.3" cy="150.3" r="4.1"/>
	<circle class="st4" cx="330.4" cy="126.8" r="4.1"/>
	<circle class="st4" cx="302.2" cy="139.7" r="4.1"/>
	<circle class="st4" cx="341.4" cy="127.1" r="4.1"/>
	<circle class="st4" cx="273.3" cy="150.6" r="4.1"/>
	<circle class="st4" cx="312.8" cy="138.9" r="4.1"/>
	<circle class="st4" cx="323.6" cy="139.2" r="4.1"/>
	<circle class="st4" cx="284.1" cy="150.8" r="4.1"/>
	<circle class="st4" cx="334.1" cy="138.5" r="4.1"/>
	<circle class="st4" cx="294.8" cy="151" r="4.1"/>
	<circle class="st4" cx="344.8" cy="138.8" r="4.1"/>
	<circle class="st4" cx="305.4" cy="151.2" r="4.1"/>
	<circle class="st4" cx="315.9" cy="150.7" r="4.1"/>
	<circle class="st4" cx="265.7" cy="162.4" r="4.1"/>
	<circle class="st4" cx="326.4" cy="150.9" r="4.1"/>
	<circle class="st4" cx="336.8" cy="150.5" r="4.1"/>
	<circle class="st4" cx="276.2" cy="162.6" r="4.1"/>
	<circle class="st4" cx="347.3" cy="150.7" r="4.1"/>
</g>
<g id="_x35_--Y--PART-">
</g>
<g id="_x36_-GELECEK-PART-S-">
</g>
<g id="_x37_-SAADET">
</g>
<g id="_x38_-AK-PART-">
</g>
<g id="_x39_-MP">
	<circle class="st5" cx="286.7" cy="162.7" r="4.1"/>
	<circle class="st5" cx="297.1" cy="162.9" r="4.1"/>
	<circle class="st5" cx="307.5" cy="163" r="4.1"/>
	<circle class="st5" cx="317.9" cy="162.7" r="4.1"/>
	<circle class="st5" cx="328.3" cy="162.8" r="4.1"/>
	<circle class="st5" cx="338.6" cy="162.6" r="4.1"/>
	<circle class="st5" cx="349" cy="162.7" r="4.1"/>
	<circle class="st5" cx="267.4" cy="174.9" r="4.1"/>
	<circle class="st5" cx="277.7" cy="174.9" r="4.1"/>
	<circle class="st5" cx="288" cy="174.9" r="4.1"/>
	<circle class="st5" cx="298.3" cy="174.9" r="4.1"/>
	<circle class="st5" cx="308.6" cy="174.9" r="4.1"/>
	<circle class="st5" cx="318.9" cy="174.9" r="4.1"/>
	<circle class="st5" cx="329.2" cy="174.9" r="4.1"/>
	<circle class="st5" cx="339.5" cy="174.9" r="4.1"/>
	<circle class="st5" cx="349.8" cy="174.9" r="4.1"/>
</g>
<g id="_x31_0-MHP">
</g>
<g id="_x31_1-H-DA-PAR">
</g>
</svg>
