<?xml version="1.0" encoding="UTF-8" standalone="no"?>
<svg xmlns:svg="http://www.w3.org/2000/svg"
     xmlns="http://www.w3.org/2000/svg" version="1.1"
     width="360.0" height="185.0">
    <!-- Created with parliamentarch (https://github.com/Gouvernathor/parliamentarch/) -->
    <text x="180.0" y="175.0"
          style="font-size:36px;font-weight:bold;text-align:center;text-anchor:middle;font-family:sans-serif">600</text>
    <g style="fill:#2e2b86"
       id="0-Party-1">
        <title>Party 1</title>
        <circle cx="8.85" cy="176.20" r="3.04"/>
        <circle cx="16.46" cy="176.20" r="3.04"/>
        <circle cx="24.07" cy="176.20" r="3.04"/>
        <circle cx="31.68" cy="176.20" r="3.04"/>
        <circle cx="39.29" cy="176.20" r="3.04"/>
        <circle cx="46.90" cy="176.20" r="3.04"/>
        <circle cx="54.51" cy="176.20" r="3.04"/>
        <circle cx="62.13" cy="176.20" r="3.04"/>
        <circle cx="69.74" cy="176.20" r="3.04"/>
        <circle cx="77.35" cy="176.20" r="3.04"/>
        <circle cx="84.97" cy="176.20" r="3.04"/>
        <circle cx="92.58" cy="176.20" r="3.04"/>
        <circle cx="9.22" cy="168.05" r="3.04"/>
        <circle cx="16.85" cy="168.04" r="3.04"/>
        <circle cx="24.48" cy="168.03" r="3.04"/>
        <circle cx="32.10" cy="168.16" r="3.04"/>
        <circle cx="39.74" cy="168.16" r="3.04"/>
        <circle cx="47.39" cy="168.00" r="3.04"/>
        <circle cx="55.03" cy="167.98" r="3.04"/>
        <circle cx="62.68" cy="167.97" r="3.04"/>
        <circle cx="70.31" cy="168.15" r="3.04"/>
        <circle cx="77.97" cy="168.14" r="3.04"/>
        <circle cx="9.99" cy="159.93" r="3.04"/>
        <circle cx="17.65" cy="159.91" r="3.04"/>
        <circle cx="85.63" cy="168.14" r="3.04"/>
        <circle cx="25.32" cy="159.90" r="3.04"/>
        <circle cx="32.96" cy="160.17" r="3.04"/>
        <circle cx="93.31" cy="168.13" r="3.04"/>
        <circle cx="40.64" cy="160.16" r="3.04"/>
        <circle cx="48.38" cy="159.84" r="3.04"/>
        <circle cx="56.09" cy="159.82" r="3.04"/>
        <circle cx="11.13" cy="151.85" r="3.04"/>
        <circle cx="63.81" cy="159.80" r="3.04"/>
        <circle cx="18.86" cy="151.84" r="3.04"/>
        <circle cx="71.47" cy="160.16" r="3.04"/>
        <circle cx="26.59" cy="151.82" r="3.04"/>
        <circle cx="34.25" cy="152.23" r="3.04"/>
        <circle cx="79.22" cy="160.16" r="3.04"/>
        <circle cx="42.00" cy="152.23" r="3.04"/>
        <circle cx="86.98" cy="160.16" r="3.04"/>
        <circle cx="12.67" cy="143.84" r="3.04"/>
        <circle cx="49.88" cy="151.77" r="3.04"/>
        <circle cx="20.46" cy="143.83" r="3.04"/>
        <circle cx="57.68" cy="151.75" r="3.04"/>
        <circle cx="94.78" cy="160.17" r="3.04"/>
        <circle cx="28.28" cy="143.82" r="3.04"/>
        <circle cx="65.50" cy="151.73" r="3.04"/>
        <circle cx="35.97" cy="144.37" r="3.04"/>
        <circle cx="73.21" cy="152.28" r="3.04"/>
        <circle cx="43.82" cy="144.39" r="3.04"/>
        <circle cx="14.58" cy="135.91" r="3.04"/>
        <circle cx="22.47" cy="135.92" r="3.04"/>
        <circle cx="81.09" cy="152.30" r="3.04"/>
        <circle cx="51.86" cy="143.80" r="3.04"/>
        <circle cx="30.38" cy="135.92" r="3.04"/>
        <circle cx="59.79" cy="143.80" r="3.04"/>
        <circle cx="89.00" cy="152.34" r="3.04"/>
        <circle cx="38.11" cy="136.62" r="3.04"/>
        <circle cx="16.87" cy="128.08" r="3.04"/>
        <circle cx="67.76" cy="143.80" r="3.04"/>
        <circle cx="46.07" cy="136.67" r="3.04"/>
        <circle cx="96.97" cy="152.38" r="3.04"/>
        <circle cx="24.86" cy="128.11" r="3.04"/>
        <circle cx="75.52" cy="144.55" r="3.04"/>
        <circle cx="54.34" cy="135.97" r="3.04"/>
        <circle cx="32.89" cy="128.14" r="3.04"/>
        <circle cx="40.67" cy="128.99" r="3.04"/>
        <circle cx="83.57" cy="144.62" r="3.04"/>
        <circle cx="19.52" cy="120.37" r="3.04"/>
        <circle cx="62.42" cy="136.00" r="3.04"/>
        <circle cx="48.77" cy="129.09" r="3.04"/>
        <circle cx="27.64" cy="120.43" r="3.04"/>
        <circle cx="91.68" cy="144.71" r="3.04"/>
        <circle cx="70.56" cy="136.04" r="3.04"/>
        <circle cx="35.81" cy="120.51" r="3.04"/>
        <circle cx="57.29" cy="128.31" r="3.04"/>
        <circle cx="78.39" cy="137.01" r="3.04"/>
        <circle cx="22.55" cy="112.80" r="3.04"/>
        <circle cx="43.64" cy="121.52" r="3.04"/>
        <circle cx="99.88" cy="144.82" r="3.04"/>
        <circle cx="30.81" cy="112.90" r="3.04"/>
        <circle cx="65.55" cy="128.39" r="3.04"/>
        <circle cx="51.89" cy="121.67" r="3.04"/>
        <circle cx="86.65" cy="137.15" r="3.04"/>
        <circle cx="39.13" cy="113.03" r="3.04"/>
        <circle cx="25.93" cy="105.37" r="3.04"/>
        <circle cx="73.90" cy="128.50" r="3.04"/>
        <circle cx="47.01" cy="114.22" r="3.04"/>
        <circle cx="60.71" cy="120.84" r="3.04"/>
        <circle cx="95.00" cy="137.33" r="3.04"/>
        <circle cx="34.34" cy="105.54" r="3.04"/>
        <circle cx="81.81" cy="129.70" r="3.04"/>
        <circle cx="55.44" cy="114.45" r="3.04"/>
        <circle cx="69.18" cy="121.01" r="3.04"/>
        <circle cx="42.83" cy="105.74" r="3.04"/>
        <circle cx="29.66" cy="98.12" r="3.04"/>
        <circle cx="103.48" cy="137.57" r="3.04"/>
        <circle cx="90.30" cy="129.95" r="3.04"/>
        <circle cx="50.77" cy="107.11" r="3.04"/>
        <circle cx="77.76" cy="121.22" r="3.04"/>
        <circle cx="64.59" cy="113.60" r="3.04"/>
        <circle cx="38.24" cy="98.37" r="3.04"/>
        <circle cx="59.39" cy="107.43" r="3.04"/>
        <circle cx="33.73" cy="91.05" r="3.04"/>
        <circle cx="85.75" cy="122.65" r="3.04"/>
        <circle cx="46.91" cy="98.66" r="3.04"/>
        <circle cx="98.93" cy="130.27" r="3.04"/>
        <circle cx="73.28" cy="113.87" r="3.04"/>
        <circle cx="54.91" cy="100.21" r="3.04"/>
        <circle cx="42.49" cy="91.40" r="3.04"/>
        <circle cx="68.90" cy="106.61" r="3.04"/>
        <circle cx="94.51" cy="123.06" r="3.04"/>
        <circle cx="82.12" cy="114.22" r="3.04"/>
        <circle cx="38.13" cy="84.18" r="3.04"/>
        <circle cx="63.73" cy="100.66" r="3.04"/>
        <circle cx="107.73" cy="130.68" r="3.04"/>
        <circle cx="51.36" cy="91.80" r="3.04"/>
        <circle cx="90.19" cy="115.92" r="3.04"/>
        <circle cx="77.84" cy="107.03" r="3.04"/>
        <circle cx="59.42" cy="93.55" r="3.04"/>
        <circle cx="47.08" cy="84.64" r="3.04"/>
        <circle cx="103.45" cy="123.56" r="3.04"/>
        <circle cx="42.85" cy="77.54" r="3.04"/>
        <circle cx="73.64" cy="99.90" r="3.04"/>
        <circle cx="56.15" cy="85.18" r="3.04"/>
        <circle cx="68.45" cy="94.15" r="3.04"/>
        <circle cx="86.95" cy="107.54" r="3.04"/>
        <circle cx="99.25" cy="116.51" r="3.04"/>
        <circle cx="52.00" cy="78.13" r="3.04"/>
        <circle cx="64.28" cy="87.14" r="3.04"/>
        <circle cx="82.84" cy="100.49" r="3.04"/>
        <circle cx="47.89" cy="71.12" r="3.04"/>
        <circle cx="112.60" cy="124.21" r="3.04"/>
        <circle cx="95.12" cy="109.53" r="3.04"/>
        <circle cx="61.29" cy="78.82" r="3.04"/>
        <circle cx="78.78" cy="93.49" r="3.04"/>
        <circle cx="73.54" cy="87.91" r="3.04"/>
        <circle cx="108.52" cy="117.26" r="3.04"/>
        <circle cx="57.25" cy="71.87" r="3.04"/>
        <circle cx="69.48" cy="81.01" r="3.04"/>
        <circle cx="92.24" cy="101.21" r="3.04"/>
        <circle cx="53.23" cy="64.95" r="3.04"/>
        <circle cx="104.49" cy="110.37" r="3.04"/>
        <circle cx="88.26" cy="94.30" r="3.04"/>
        <circle cx="66.76" cy="72.74" r="3.04"/>
        <circle cx="100.49" cy="103.51" r="3.04"/>
        <circle cx="84.30" cy="87.42" r="3.04"/>
        <circle cx="78.98" cy="81.98" r="3.04"/>
        <circle cx="62.79" cy="65.88" r="3.04"/>
        <circle cx="118.04" cy="118.21" r="3.04"/>
        <circle cx="58.85" cy="59.04" r="3.04"/>
        <circle cx="75.01" cy="75.16" r="3.04"/>
        <circle cx="97.96" cy="95.27" r="3.04"/>
        <circle cx="114.11" cy="111.42" r="3.04"/>
        <circle cx="72.53" cy="66.95" r="3.04"/>
        <circle cx="94.07" cy="88.47" r="3.04"/>
        <circle cx="68.64" cy="60.17" r="3.04"/>
        <circle cx="110.19" cy="104.65" r="3.04"/>
        <circle cx="84.74" cy="76.37" r="3.04"/>
        <circle cx="90.19" cy="81.70" r="3.04"/>
        <circle cx="64.75" cy="53.41" r="3.04"/>
        <circle cx="80.85" cy="69.63" r="3.04"/>
        <circle cx="106.30" cy="97.90" r="3.04"/>
        <circle cx="78.60" cy="61.48" r="3.04"/>
        <circle cx="104.08" cy="89.75" r="3.04"/>
        <circle cx="74.75" cy="54.76" r="3.04"/>
        <circle cx="124.02" cy="112.75" r="3.04"/>
        <circle cx="70.91" cy="48.06" r="3.04"/>
        <circle cx="100.25" cy="83.04" r="3.04"/>
        <circle cx="90.82" cy="71.09" r="3.04"/>
        <circle cx="120.17" cy="106.07" r="3.04"/>
        <circle cx="96.42" cy="76.35" r="3.04"/>
        <circle cx="86.97" cy="64.42" r="3.04"/>
        <circle cx="116.33" cy="99.40" r="3.04"/>
        <circle cx="112.50" cy="92.74" r="3.04"/>
        <circle cx="84.95" cy="56.33" r="3.04"/>
        <circle cx="81.13" cy="49.67" r="3.04"/>
        <circle cx="77.32" cy="43.02" r="3.04"/>
        <circle cx="110.58" cy="84.66" r="3.04"/>
        <circle cx="97.19" cy="66.17" r="3.04"/>
        <circle cx="93.37" cy="59.55" r="3.04"/>
        <circle cx="106.77" cy="78.02" r="3.04"/>
        <circle cx="102.97" cy="71.39" r="3.04"/>
        <circle cx="91.56" cy="51.52" r="3.04"/>
        <circle cx="130.47" cy="107.87" r="3.04"/>
        <circle cx="87.76" cy="44.90" r="3.04"/>
        <circle cx="83.96" cy="38.28" r="3.04"/>
        <circle cx="126.67" cy="101.25" r="3.04"/>
        <circle cx="122.86" cy="94.64" r="3.04"/>
        <circle cx="119.05" cy="88.04" r="3.04"/>
        <circle cx="103.83" cy="61.63" r="3.04"/>
        <circle cx="100.03" cy="55.03" r="3.04"/>
        <circle cx="117.41" cy="80.05" r="3.04"/>
        <circle cx="113.61" cy="73.45" r="3.04"/>
        <circle cx="109.81" cy="66.85" r="3.04"/>
        <circle cx="98.42" cy="47.06" r="3.04"/>
        <circle cx="94.62" cy="40.46" r="3.04"/>
        <circle cx="90.82" cy="33.87" r="3.04"/>
        <circle cx="106.92" cy="50.88" r="3.04"/>
        <circle cx="110.72" cy="57.47" r="3.04"/>
        <circle cx="125.94" cy="83.83" r="3.04"/>
        <circle cx="129.74" cy="90.42" r="3.04"/>
        <circle cx="133.55" cy="97.01" r="3.04"/>
        <circle cx="137.35" cy="103.60" r="3.04"/>
        <circle cx="97.88" cy="29.79" r="3.04"/>
        <circle cx="101.69" cy="36.38" r="3.04"/>
        <circle cx="105.49" cy="42.97" r="3.04"/>
        <circle cx="116.92" cy="62.74" r="3.04"/>
        <circle cx="120.73" cy="69.33" r="3.04"/>
        <circle cx="124.55" cy="75.92" r="3.04"/>
        <circle cx="114.02" cy="47.11" r="3.04"/>
        <circle cx="117.84" cy="53.71" r="3.04"/>
        <circle cx="105.13" cy="26.05" r="3.04"/>
        <circle cx="108.95" cy="32.65" r="3.04"/>
        <circle cx="112.78" cy="39.25" r="3.04"/>
        <circle cx="133.11" cy="80.13" r="3.04"/>
        <circle cx="136.94" cy="86.74" r="3.04"/>
        <circle cx="124.27" cy="59.07" r="3.04"/>
        <circle cx="128.11" cy="65.68" r="3.04"/>
        <circle cx="140.77" cy="93.36" r="3.04"/>
        <circle cx="131.95" cy="72.30" r="3.04"/>
        <circle cx="144.60" cy="99.98" r="3.04"/>
        <circle cx="121.32" cy="43.73" r="3.04"/>
        <circle cx="112.54" cy="22.65" r="3.04"/>
        <circle cx="125.15" cy="50.36" r="3.04"/>
        <circle cx="116.39" cy="29.29" r="3.04"/>
        <circle cx="120.24" cy="35.92" r="3.04"/>
        <circle cx="131.83" cy="55.86" r="3.04"/>
        <circle cx="140.54" cy="76.97" r="3.04"/>
        <circle cx="135.71" cy="62.53" r="3.04"/>
        <circle cx="120.11" cy="19.62" r="3.04"/>
        <circle cx="144.40" cy="83.65" r="3.04"/>
        <circle cx="128.79" cy="40.75" r="3.04"/>
        <circle cx="139.60" cy="69.20" r="3.04"/>
        <circle cx="123.99" cy="26.30" r="3.04"/>
        <circle cx="132.65" cy="47.44" r="3.04"/>
        <circle cx="127.88" cy="32.99" r="3.04"/>
        <circle cx="148.27" cy="90.34" r="3.04"/>
        <circle cx="152.15" cy="97.05" r="3.04"/>
        <circle cx="127.82" cy="16.95" r="3.04"/>
        <circle cx="139.58" cy="53.13" r="3.04"/>
        <circle cx="131.73" cy="23.70" r="3.04"/>
        <circle cx="136.41" cy="38.18" r="3.04"/>
        <circle cx="143.50" cy="59.88" r="3.04"/>
        <circle cx="148.17" cy="74.36" r="3.04"/>
        <circle cx="135.65" cy="30.46" r="3.04"/>
        <circle cx="140.30" cy="44.95" r="3.04"/>
        <circle cx="147.44" cy="66.65" r="3.04"/>
        <circle cx="152.08" cy="81.15" r="3.04"/>
        <circle cx="135.65" cy="14.65" r="3.04"/>
        <circle cx="156.00" cy="87.97" r="3.04"/>
        <circle cx="139.59" cy="21.48" r="3.04"/>
        <circle cx="147.48" cy="50.88" r="3.04"/>
        <circle cx="144.16" cy="36.02" r="3.04"/>
        <circle cx="143.55" cy="28.34" r="3.04"/>
        <circle cx="159.93" cy="94.83" r="3.04"/>
        <circle cx="151.45" cy="57.75" r="3.04"/>
        <circle cx="148.09" cy="42.90" r="3.04"/>
        <circle cx="155.98" cy="72.32" r="3.04"/>
        <circle cx="143.57" cy="12.72" r="3.04"/>
        <circle cx="155.44" cy="64.65" r="3.04"/>
        <circle cx="147.55" cy="19.66" r="3.04"/>
        <circle cx="159.93" cy="79.26" r="3.04"/>
        <circle cx="152.01" cy="34.29" r="3.04"/>
        <circle cx="155.50" cy="49.12" r="3.04"/>
        <circle cx="151.54" cy="26.64" r="3.04"/>
        <circle cx="155.97" cy="41.30" r="3.04"/>
        <circle cx="163.90" cy="86.26" r="3.04"/>
        <circle cx="151.58" cy="11.18" r="3.04"/>
        <circle cx="159.52" cy="56.14" r="3.04"/>
        <circle cx="155.59" cy="18.24" r="3.04"/>
        <circle cx="163.92" cy="70.85" r="3.04"/>
        <circle cx="163.56" cy="63.22" r="3.04"/>
        <circle cx="167.89" cy="93.34" r="3.04"/>
        <circle cx="159.95" cy="32.99" r="3.04"/>
        <circle cx="159.62" cy="25.36" r="3.04"/>
        <circle cx="163.61" cy="47.86" r="3.04"/>
        <circle cx="159.66" cy="10.02" r="3.04"/>
        <circle cx="167.91" cy="78.00" r="3.04"/>
        <circle cx="163.94" cy="40.16" r="3.04"/>
        <circle cx="163.69" cy="17.23" r="3.04"/>
        <circle cx="167.68" cy="55.06" r="3.04"/>
        <circle cx="171.92" cy="85.24" r="3.04"/>
        <circle cx="167.95" cy="32.12" r="3.04"/>
        <circle cx="167.75" cy="24.50" r="3.04"/>
        <circle cx="171.94" cy="69.97" r="3.04"/>
        <circle cx="167.77" cy="9.24" r="3.04"/>
        <circle cx="171.76" cy="62.35" r="3.04"/>
        <circle cx="171.79" cy="47.10" r="3.04"/>
        <circle cx="171.96" cy="39.47" r="3.04"/>
        <circle cx="171.84" cy="16.62" r="3.04"/>
        <circle cx="175.95" cy="92.59" r="3.04"/>
        <circle cx="175.96" cy="77.36" r="3.04"/>
        <circle cx="175.89" cy="54.52" r="3.04"/>
        <circle cx="175.98" cy="31.68" r="3.04"/>
        <circle cx="175.91" cy="24.08" r="3.04"/>
        <circle cx="175.92" cy="8.85" r="3.04"/>
        <circle cx="180.00" cy="62.07" r="3.04"/>
        <circle cx="180.00" cy="84.89" r="3.04"/>
        <circle cx="180.00" cy="69.67" r="3.04"/>
    </g>
    <g style="fill:#204a32"
       id="1-Party-2">
        <title>Party 2</title>
        <circle cx="180.00" cy="46.85" r="3.04"/>
        <circle cx="180.00" cy="39.24" r="3.04"/>
        <circle cx="180.00" cy="16.41" r="3.04"/>
        <circle cx="184.08" cy="8.85" r="3.04"/>
        <circle cx="184.09" cy="24.08" r="3.04"/>
        <circle cx="184.02" cy="31.68" r="3.04"/>
        <circle cx="184.11" cy="54.52" r="3.04"/>
        <circle cx="184.04" cy="77.36" r="3.04"/>
        <circle cx="184.05" cy="92.59" r="3.04"/>
        <circle cx="188.16" cy="16.62" r="3.04"/>
        <circle cx="188.04" cy="39.47" r="3.04"/>
        <circle cx="188.21" cy="47.10" r="3.04"/>
        <circle cx="188.24" cy="62.35" r="3.04"/>
        <circle cx="192.23" cy="9.24" r="3.04"/>
        <circle cx="188.06" cy="69.97" r="3.04"/>
        <circle cx="192.25" cy="24.50" r="3.04"/>
        <circle cx="192.05" cy="32.12" r="3.04"/>
        <circle cx="188.08" cy="85.24" r="3.04"/>
        <circle cx="192.32" cy="55.06" r="3.04"/>
        <circle cx="196.31" cy="17.23" r="3.04"/>
        <circle cx="196.06" cy="40.16" r="3.04"/>
        <circle cx="192.09" cy="78.00" r="3.04"/>
        <circle cx="200.34" cy="10.02" r="3.04"/>
        <circle cx="196.39" cy="47.86" r="3.04"/>
        <circle cx="200.38" cy="25.36" r="3.04"/>
        <circle cx="200.05" cy="32.99" r="3.04"/>
        <circle cx="192.11" cy="93.34" r="3.04"/>
        <circle cx="196.44" cy="63.22" r="3.04"/>
        <circle cx="196.08" cy="70.85" r="3.04"/>
        <circle cx="204.41" cy="18.24" r="3.04"/>
        <circle cx="200.48" cy="56.14" r="3.04"/>
        <circle cx="208.42" cy="11.18" r="3.04"/>
        <circle cx="196.10" cy="86.26" r="3.04"/>
        <circle cx="204.03" cy="41.30" r="3.04"/>
        <circle cx="208.46" cy="26.64" r="3.04"/>
        <circle cx="204.50" cy="49.12" r="3.04"/>
        <circle cx="207.99" cy="34.29" r="3.04"/>
        <circle cx="200.07" cy="79.26" r="3.04"/>
        <circle cx="212.45" cy="19.66" r="3.04"/>
        <circle cx="204.56" cy="64.65" r="3.04"/>
        <circle cx="216.43" cy="12.72" r="3.04"/>
        <circle cx="204.02" cy="72.32" r="3.04"/>
        <circle cx="211.91" cy="42.90" r="3.04"/>
        <circle cx="208.55" cy="57.75" r="3.04"/>
        <circle cx="200.07" cy="94.83" r="3.04"/>
        <circle cx="216.45" cy="28.34" r="3.04"/>
        <circle cx="215.84" cy="36.02" r="3.04"/>
        <circle cx="212.52" cy="50.88" r="3.04"/>
        <circle cx="220.41" cy="21.48" r="3.04"/>
        <circle cx="204.00" cy="87.97" r="3.04"/>
        <circle cx="224.35" cy="14.65" r="3.04"/>
        <circle cx="207.92" cy="81.15" r="3.04"/>
        <circle cx="212.56" cy="66.65" r="3.04"/>
        <circle cx="219.70" cy="44.95" r="3.04"/>
        <circle cx="224.35" cy="30.46" r="3.04"/>
        <circle cx="211.83" cy="74.36" r="3.04"/>
        <circle cx="216.50" cy="59.88" r="3.04"/>
        <circle cx="223.59" cy="38.18" r="3.04"/>
        <circle cx="228.27" cy="23.70" r="3.04"/>
        <circle cx="220.42" cy="53.13" r="3.04"/>
        <circle cx="232.18" cy="16.95" r="3.04"/>
        <circle cx="207.85" cy="97.05" r="3.04"/>
        <circle cx="211.73" cy="90.34" r="3.04"/>
        <circle cx="232.12" cy="32.99" r="3.04"/>
        <circle cx="227.35" cy="47.44" r="3.04"/>
        <circle cx="236.01" cy="26.30" r="3.04"/>
        <circle cx="220.40" cy="69.20" r="3.04"/>
        <circle cx="231.21" cy="40.75" r="3.04"/>
        <circle cx="215.60" cy="83.65" r="3.04"/>
        <circle cx="239.89" cy="19.62" r="3.04"/>
        <circle cx="224.29" cy="62.53" r="3.04"/>
        <circle cx="219.46" cy="76.97" r="3.04"/>
        <circle cx="228.17" cy="55.86" r="3.04"/>
        <circle cx="239.76" cy="35.92" r="3.04"/>
        <circle cx="243.61" cy="29.29" r="3.04"/>
        <circle cx="234.85" cy="50.36" r="3.04"/>
        <circle cx="247.46" cy="22.65" r="3.04"/>
        <circle cx="238.68" cy="43.73" r="3.04"/>
        <circle cx="215.40" cy="99.98" r="3.04"/>
        <circle cx="228.05" cy="72.30" r="3.04"/>
        <circle cx="219.23" cy="93.36" r="3.04"/>
        <circle cx="231.89" cy="65.68" r="3.04"/>
        <circle cx="235.73" cy="59.07" r="3.04"/>
        <circle cx="223.06" cy="86.74" r="3.04"/>
        <circle cx="226.89" cy="80.13" r="3.04"/>
        <circle cx="247.22" cy="39.25" r="3.04"/>
        <circle cx="251.05" cy="32.65" r="3.04"/>
        <circle cx="254.87" cy="26.05" r="3.04"/>
        <circle cx="242.16" cy="53.71" r="3.04"/>
        <circle cx="245.98" cy="47.11" r="3.04"/>
        <circle cx="235.45" cy="75.92" r="3.04"/>
        <circle cx="239.27" cy="69.33" r="3.04"/>
        <circle cx="243.08" cy="62.74" r="3.04"/>
        <circle cx="254.51" cy="42.97" r="3.04"/>
        <circle cx="258.31" cy="36.38" r="3.04"/>
        <circle cx="262.12" cy="29.79" r="3.04"/>
        <circle cx="222.65" cy="103.60" r="3.04"/>
        <circle cx="226.45" cy="97.01" r="3.04"/>
        <circle cx="230.26" cy="90.42" r="3.04"/>
        <circle cx="234.06" cy="83.83" r="3.04"/>
        <circle cx="249.28" cy="57.47" r="3.04"/>
        <circle cx="253.08" cy="50.88" r="3.04"/>
        <circle cx="269.18" cy="33.87" r="3.04"/>
        <circle cx="265.38" cy="40.46" r="3.04"/>
        <circle cx="261.58" cy="47.06" r="3.04"/>
        <circle cx="250.19" cy="66.85" r="3.04"/>
        <circle cx="246.39" cy="73.45" r="3.04"/>
        <circle cx="242.59" cy="80.05" r="3.04"/>
        <circle cx="259.97" cy="55.03" r="3.04"/>
        <circle cx="256.17" cy="61.63" r="3.04"/>
        <circle cx="240.95" cy="88.04" r="3.04"/>
        <circle cx="237.14" cy="94.64" r="3.04"/>
        <circle cx="233.33" cy="101.25" r="3.04"/>
        <circle cx="276.04" cy="38.28" r="3.04"/>
        <circle cx="272.24" cy="44.90" r="3.04"/>
        <circle cx="229.53" cy="107.87" r="3.04"/>
        <circle cx="268.44" cy="51.52" r="3.04"/>
        <circle cx="257.03" cy="71.39" r="3.04"/>
        <circle cx="253.23" cy="78.02" r="3.04"/>
        <circle cx="266.63" cy="59.55" r="3.04"/>
        <circle cx="262.81" cy="66.17" r="3.04"/>
        <circle cx="249.42" cy="84.66" r="3.04"/>
        <circle cx="282.68" cy="43.02" r="3.04"/>
        <circle cx="278.87" cy="49.67" r="3.04"/>
        <circle cx="275.05" cy="56.33" r="3.04"/>
        <circle cx="247.50" cy="92.74" r="3.04"/>
        <circle cx="243.67" cy="99.40" r="3.04"/>
        <circle cx="273.03" cy="64.42" r="3.04"/>
        <circle cx="263.58" cy="76.35" r="3.04"/>
        <circle cx="239.83" cy="106.07" r="3.04"/>
        <circle cx="269.18" cy="71.09" r="3.04"/>
        <circle cx="259.75" cy="83.04" r="3.04"/>
        <circle cx="289.09" cy="48.06" r="3.04"/>
        <circle cx="235.98" cy="112.75" r="3.04"/>
        <circle cx="285.25" cy="54.76" r="3.04"/>
        <circle cx="255.92" cy="89.75" r="3.04"/>
        <circle cx="281.40" cy="61.48" r="3.04"/>
        <circle cx="253.70" cy="97.90" r="3.04"/>
        <circle cx="279.15" cy="69.63" r="3.04"/>
        <circle cx="295.25" cy="53.41" r="3.04"/>
        <circle cx="269.81" cy="81.70" r="3.04"/>
        <circle cx="275.26" cy="76.37" r="3.04"/>
        <circle cx="249.81" cy="104.65" r="3.04"/>
        <circle cx="291.36" cy="60.17" r="3.04"/>
        <circle cx="265.93" cy="88.47" r="3.04"/>
        <circle cx="287.47" cy="66.95" r="3.04"/>
        <circle cx="245.89" cy="111.42" r="3.04"/>
        <circle cx="262.04" cy="95.27" r="3.04"/>
        <circle cx="284.99" cy="75.16" r="3.04"/>
        <circle cx="301.15" cy="59.04" r="3.04"/>
        <circle cx="241.96" cy="118.21" r="3.04"/>
        <circle cx="297.21" cy="65.88" r="3.04"/>
        <circle cx="281.02" cy="81.98" r="3.04"/>
        <circle cx="275.70" cy="87.42" r="3.04"/>
        <circle cx="259.51" cy="103.51" r="3.04"/>
        <circle cx="293.24" cy="72.74" r="3.04"/>
        <circle cx="271.74" cy="94.30" r="3.04"/>
        <circle cx="255.51" cy="110.37" r="3.04"/>
        <circle cx="306.77" cy="64.95" r="3.04"/>
        <circle cx="267.76" cy="101.21" r="3.04"/>
        <circle cx="290.52" cy="81.01" r="3.04"/>
        <circle cx="302.75" cy="71.87" r="3.04"/>
        <circle cx="251.48" cy="117.26" r="3.04"/>
        <circle cx="286.46" cy="87.91" r="3.04"/>
        <circle cx="281.22" cy="93.49" r="3.04"/>
        <circle cx="298.71" cy="78.82" r="3.04"/>
        <circle cx="264.88" cy="109.53" r="3.04"/>
        <circle cx="247.40" cy="124.21" r="3.04"/>
        <circle cx="312.11" cy="71.12" r="3.04"/>
        <circle cx="277.16" cy="100.49" r="3.04"/>
        <circle cx="295.72" cy="87.14" r="3.04"/>
        <circle cx="308.00" cy="78.13" r="3.04"/>
        <circle cx="260.75" cy="116.51" r="3.04"/>
        <circle cx="273.05" cy="107.54" r="3.04"/>
        <circle cx="291.55" cy="94.15" r="3.04"/>
        <circle cx="303.85" cy="85.18" r="3.04"/>
        <circle cx="286.36" cy="99.90" r="3.04"/>
        <circle cx="317.15" cy="77.54" r="3.04"/>
        <circle cx="256.55" cy="123.56" r="3.04"/>
        <circle cx="312.92" cy="84.64" r="3.04"/>
        <circle cx="300.58" cy="93.55" r="3.04"/>
        <circle cx="282.16" cy="107.03" r="3.04"/>
        <circle cx="269.81" cy="115.92" r="3.04"/>
        <circle cx="308.64" cy="91.80" r="3.04"/>
        <circle cx="252.27" cy="130.68" r="3.04"/>
        <circle cx="296.27" cy="100.66" r="3.04"/>
        <circle cx="321.87" cy="84.18" r="3.04"/>
        <circle cx="277.88" cy="114.22" r="3.04"/>
        <circle cx="265.49" cy="123.06" r="3.04"/>
        <circle cx="291.10" cy="106.61" r="3.04"/>
        <circle cx="317.51" cy="91.40" r="3.04"/>
        <circle cx="305.09" cy="100.21" r="3.04"/>
        <circle cx="286.72" cy="113.87" r="3.04"/>
        <circle cx="261.07" cy="130.27" r="3.04"/>
        <circle cx="313.09" cy="98.66" r="3.04"/>
        <circle cx="274.25" cy="122.65" r="3.04"/>
        <circle cx="326.27" cy="91.05" r="3.04"/>
        <circle cx="300.61" cy="107.43" r="3.04"/>
        <circle cx="321.76" cy="98.37" r="3.04"/>
        <circle cx="295.41" cy="113.60" r="3.04"/>
    </g>
    <g style="fill:#f6de8e"
       id="2-Party-3">
        <title>Party 3</title>
        <circle cx="282.24" cy="121.22" r="3.04"/>
        <circle cx="309.23" cy="107.11" r="3.04"/>
        <circle cx="269.70" cy="129.95" r="3.04"/>
        <circle cx="256.52" cy="137.57" r="3.04"/>
        <circle cx="330.34" cy="98.12" r="3.04"/>
        <circle cx="317.17" cy="105.74" r="3.04"/>
        <circle cx="290.82" cy="121.01" r="3.04"/>
        <circle cx="304.56" cy="114.45" r="3.04"/>
        <circle cx="278.19" cy="129.70" r="3.04"/>
        <circle cx="325.66" cy="105.54" r="3.04"/>
        <circle cx="265.00" cy="137.33" r="3.04"/>
        <circle cx="299.29" cy="120.84" r="3.04"/>
        <circle cx="312.99" cy="114.22" r="3.04"/>
        <circle cx="286.10" cy="128.50" r="3.04"/>
        <circle cx="334.07" cy="105.37" r="3.04"/>
        <circle cx="320.87" cy="113.03" r="3.04"/>
        <circle cx="273.35" cy="137.15" r="3.04"/>
        <circle cx="308.11" cy="121.67" r="3.04"/>
        <circle cx="294.45" cy="128.39" r="3.04"/>
        <circle cx="329.19" cy="112.90" r="3.04"/>
        <circle cx="260.12" cy="144.82" r="3.04"/>
        <circle cx="316.36" cy="121.52" r="3.04"/>
        <circle cx="337.45" cy="112.80" r="3.04"/>
        <circle cx="281.61" cy="137.01" r="3.04"/>
        <circle cx="302.71" cy="128.31" r="3.04"/>
        <circle cx="324.19" cy="120.51" r="3.04"/>
        <circle cx="289.44" cy="136.04" r="3.04"/>
        <circle cx="268.32" cy="144.71" r="3.04"/>
        <circle cx="332.36" cy="120.43" r="3.04"/>
        <circle cx="311.23" cy="129.09" r="3.04"/>
        <circle cx="297.58" cy="136.00" r="3.04"/>
        <circle cx="340.48" cy="120.37" r="3.04"/>
        <circle cx="276.43" cy="144.62" r="3.04"/>
        <circle cx="319.33" cy="128.99" r="3.04"/>
        <circle cx="327.11" cy="128.14" r="3.04"/>
        <circle cx="305.66" cy="135.97" r="3.04"/>
        <circle cx="284.48" cy="144.55" r="3.04"/>
        <circle cx="335.14" cy="128.11" r="3.04"/>
        <circle cx="263.03" cy="152.38" r="3.04"/>
        <circle cx="313.93" cy="136.67" r="3.04"/>
        <circle cx="292.24" cy="143.80" r="3.04"/>
        <circle cx="343.13" cy="128.08" r="3.04"/>
        <circle cx="321.89" cy="136.62" r="3.04"/>
        <circle cx="271.00" cy="152.34" r="3.04"/>
        <circle cx="300.21" cy="143.80" r="3.04"/>
        <circle cx="329.62" cy="135.92" r="3.04"/>
        <circle cx="308.14" cy="143.80" r="3.04"/>
        <circle cx="278.91" cy="152.30" r="3.04"/>
        <circle cx="337.53" cy="135.92" r="3.04"/>
        <circle cx="345.42" cy="135.91" r="3.04"/>
        <circle cx="316.18" cy="144.39" r="3.04"/>
        <circle cx="286.79" cy="152.28" r="3.04"/>
        <circle cx="324.03" cy="144.37" r="3.04"/>
        <circle cx="294.50" cy="151.73" r="3.04"/>
        <circle cx="331.72" cy="143.82" r="3.04"/>
        <circle cx="265.22" cy="160.17" r="3.04"/>
        <circle cx="302.32" cy="151.75" r="3.04"/>
        <circle cx="339.54" cy="143.83" r="3.04"/>
        <circle cx="310.12" cy="151.77" r="3.04"/>
        <circle cx="347.33" cy="143.84" r="3.04"/>
        <circle cx="273.02" cy="160.16" r="3.04"/>
        <circle cx="318.00" cy="152.23" r="3.04"/>
        <circle cx="280.78" cy="160.16" r="3.04"/>
        <circle cx="325.75" cy="152.23" r="3.04"/>
        <circle cx="333.41" cy="151.82" r="3.04"/>
        <circle cx="288.53" cy="160.16" r="3.04"/>
        <circle cx="341.14" cy="151.84" r="3.04"/>
        <circle cx="296.19" cy="159.80" r="3.04"/>
        <circle cx="348.87" cy="151.85" r="3.04"/>
        <circle cx="303.91" cy="159.82" r="3.04"/>
        <circle cx="311.62" cy="159.84" r="3.04"/>
        <circle cx="319.36" cy="160.16" r="3.04"/>
        <circle cx="266.69" cy="168.13" r="3.04"/>
        <circle cx="327.04" cy="160.17" r="3.04"/>
        <circle cx="334.68" cy="159.90" r="3.04"/>
        <circle cx="274.37" cy="168.14" r="3.04"/>
        <circle cx="342.35" cy="159.91" r="3.04"/>
        <circle cx="350.01" cy="159.93" r="3.04"/>
        <circle cx="282.03" cy="168.14" r="3.04"/>
        <circle cx="289.69" cy="168.15" r="3.04"/>
        <circle cx="297.32" cy="167.97" r="3.04"/>
        <circle cx="304.97" cy="167.98" r="3.04"/>
        <circle cx="312.61" cy="168.00" r="3.04"/>
        <circle cx="320.26" cy="168.16" r="3.04"/>
        <circle cx="327.90" cy="168.16" r="3.04"/>
        <circle cx="335.52" cy="168.03" r="3.04"/>
        <circle cx="343.15" cy="168.04" r="3.04"/>
        <circle cx="350.78" cy="168.05" r="3.04"/>
        <circle cx="267.42" cy="176.20" r="3.04"/>
        <circle cx="275.03" cy="176.20" r="3.04"/>
        <circle cx="282.65" cy="176.20" r="3.04"/>
        <circle cx="290.26" cy="176.20" r="3.04"/>
        <circle cx="297.87" cy="176.20" r="3.04"/>
        <circle cx="305.49" cy="176.20" r="3.04"/>
        <circle cx="313.10" cy="176.20" r="3.04"/>
        <circle cx="320.71" cy="176.20" r="3.04"/>
        <circle cx="328.32" cy="176.20" r="3.04"/>
        <circle cx="335.93" cy="176.20" r="3.04"/>
        <circle cx="343.54" cy="176.20" r="3.04"/>
        <circle cx="351.15" cy="176.20" r="3.04"/>
    </g>
</svg>

