<?xml version="1.0" encoding="utf-8"?>
<!-- Generator: Adobe Illustrator 26.5.0, SVG Export Plug-In . SVG Version: 6.00 Build 0)  -->
<svg version="1.1" id="katman_1" xmlns:svg="http://www.w3.org/2000/svg"
	 xmlns="http://www.w3.org/2000/svg" xmlns:xlink="http://www.w3.org/1999/xlink" x="0px" y="0px" viewBox="0 0 360 185"
	 style="enable-background:new 0 0 360 185;" xml:space="preserve">
<style type="text/css">
	.st0{enable-background:new    ;}
	.st1{fill:#FFFFFF;}
	.st2{fill:#97228B;}
	.st3{fill:#E30613;}
	.st4{fill:#0069A7;}
	.st5{fill:#3CB4E5;}
	.st6{fill:#19864A;}
	.st7{fill:#ED3A61;}
	.st8{fill:#F8991D;}
	.st9{fill:#870F23;}
	.st10{fill:#00953B;}
</style>
<g class="st0">
	<path class="st1" d="M162.8,175v-4.5h-11.4v-3.8l10.9-16.3h5.1v15.7h3.1v4.4h-3.1v4.5H162.8z M162.8,157.4h-0.3l-5.9,8.7h6.2V157.4
		z"/>
	<path class="st1" d="M182.3,175.6c-0.9,0-1.9-0.1-2.8-0.4c-0.9-0.3-1.8-0.7-2.6-1.2c-0.8-0.6-1.5-1.2-2.1-2.1c-0.6-0.8-1-1.8-1.3-3
		l4.3-1.7c0.3,1.2,0.8,2.2,1.5,2.9c0.8,0.7,1.7,1.1,2.9,1.1c0.6,0,1.1-0.1,1.6-0.3c0.5-0.2,0.9-0.5,1.3-0.8c0.4-0.4,0.7-0.8,0.9-1.3
		c0.2-0.5,0.3-1,0.3-1.6c0-0.6-0.1-1.1-0.3-1.6c-0.2-0.5-0.5-0.9-0.8-1.3c-0.4-0.4-0.8-0.7-1.3-0.9c-0.5-0.2-1-0.3-1.6-0.3
		c-0.7,0-1.4,0.2-2,0.5c-0.6,0.3-1.1,0.7-1.5,1.2l-4.6-2.1l1.4-12.3h13.9v4.1h-9.9l-0.9,5.8l0.3,0.1c0.5-0.4,1.1-0.8,1.8-1
		c0.7-0.3,1.5-0.4,2.5-0.4c1,0,2,0.2,3,0.6c0.9,0.4,1.8,1,2.5,1.7c0.7,0.7,1.3,1.6,1.7,2.6c0.4,1,0.6,2.2,0.6,3.4
		c0,1.2-0.2,2.4-0.6,3.4s-1,1.9-1.8,2.7s-1.7,1.3-2.8,1.7C184.8,175.4,183.6,175.6,182.3,175.6z"/>
	<path class="st1" d="M204.7,175.6c-1.6,0-3-0.3-4.3-1c-1.3-0.7-2.4-1.6-3.3-2.7c-0.9-1.2-1.6-2.5-2.1-4.1c-0.5-1.6-0.7-3.3-0.7-5.1
		c0-1.8,0.2-3.5,0.7-5.1c0.5-1.6,1.2-2.9,2.1-4.1c0.9-1.2,2-2.1,3.3-2.7c1.3-0.7,2.7-1,4.3-1s3,0.3,4.3,1c1.3,0.7,2.4,1.6,3.3,2.7
		c0.9,1.2,1.6,2.5,2.1,4.1c0.5,1.6,0.7,3.3,0.7,5.1c0,1.8-0.2,3.5-0.7,5.1s-1.2,2.9-2.1,4.1c-0.9,1.2-2,2.1-3.3,2.7
		C207.7,175.2,206.3,175.6,204.7,175.6z M204.7,171.1c0.9,0,1.6-0.2,2.3-0.6c0.7-0.4,1.3-1,1.8-1.8c0.5-0.8,0.9-1.6,1.1-2.7
		s0.4-2.1,0.4-3.3c0-1.2-0.1-2.3-0.4-3.4s-0.6-1.9-1.1-2.7c-0.5-0.8-1.1-1.3-1.8-1.8c-0.7-0.4-1.5-0.6-2.3-0.6
		c-0.9,0-1.7,0.2-2.4,0.6c-0.7,0.4-1.3,1-1.8,1.8c-0.5,0.8-0.8,1.6-1.1,2.7c-0.3,1-0.4,2.1-0.4,3.4c0,1.2,0.1,2.3,0.4,3.3
		c0.3,1,0.6,1.9,1.1,2.7c0.5,0.8,1.1,1.3,1.8,1.8C203,170.9,203.8,171.1,204.7,171.1z"/>
</g>
<g id="_x30_-HDP">
	<circle class="st2" cx="9.2" cy="175.8" r="3.3"/>
	<circle class="st2" cx="17.5" cy="175.8" r="3.3"/>
	<circle class="st2" cx="25.9" cy="175.8" r="3.3"/>
	<circle class="st2" cx="34.2" cy="175.8" r="3.3"/>
	<circle class="st2" cx="42.6" cy="175.8" r="3.3"/>
	<circle class="st2" cx="50.9" cy="175.8" r="3.3"/>
	<circle class="st2" cx="59.2" cy="175.8" r="3.3"/>
	<circle class="st2" cx="67.6" cy="175.8" r="3.3"/>
	<circle class="st2" cx="75.9" cy="175.8" r="3.3"/>
	<circle class="st2" cx="84.3" cy="175.8" r="3.3"/>
	<circle class="st2" cx="92.6" cy="175.8" r="3.3"/>
	<circle class="st2" cx="9.8" cy="165.9" r="3.3"/>
	<circle class="st2" cx="18.1" cy="166" r="3.3"/>
	<circle class="st2" cx="26.5" cy="165.9" r="3.3"/>
	<circle class="st2" cx="34.8" cy="165.9" r="3.3"/>
	<circle class="st2" cx="43.2" cy="165.8" r="3.3"/>
	<circle class="st2" cx="51.6" cy="165.9" r="3.3"/>
	<circle class="st2" cx="60" cy="165.8" r="3.3"/>
	<circle class="st2" cx="68.4" cy="166" r="3.3"/>
	<circle class="st2" cx="76.8" cy="165.9" r="3.3"/>
	<circle class="st2" cx="10.9" cy="156" r="3.3"/>
	<circle class="st2" cx="85.2" cy="166.1" r="3.3"/>
	<circle class="st2" cx="19.2" cy="156.2" r="3.3"/>
	<circle class="st2" cx="27.7" cy="156.1" r="3.3"/>
	<circle class="st2" cx="93.7" cy="165.6" r="3.3"/>
	<circle class="st2" cx="36.2" cy="155.9" r="3.3"/>
	<circle class="st2" cx="44.7" cy="155.8" r="3.3"/>
	<circle class="st2" cx="53.1" cy="156.1" r="3.3"/>
	<circle class="st2" cx="12.6" cy="146.1" r="3.3"/>
	<circle class="st2" cx="61.6" cy="155.9" r="3.3"/>
	<circle class="st2" cx="21" cy="146.5" r="3.3"/>
	<circle class="st2" cx="70" cy="156.3" r="3.3"/>
	<circle class="st2" cx="29.5" cy="146.4" r="3.3"/>
	<circle class="st2" cx="78.6" cy="156.1" r="3.3"/>
	<circle class="st2" cx="38.2" cy="146.2" r="3.3"/>
	<circle class="st2" cx="87.1" cy="156.6" r="3.3"/>
	<circle class="st2" cx="46.8" cy="145.9" r="3.3"/>
	<circle class="st2" cx="14.8" cy="136.4" r="3.3"/>
	<circle class="st2" cx="55.3" cy="146.4" r="3.3"/>
	<circle class="st2" cx="23.3" cy="137" r="3.3"/>
	<circle class="st2" cx="96" cy="155.6" r="3.3"/>
	<circle class="st2" cx="64" cy="146.2" r="3.3"/>
</g>
<g id="_x31_-CHP">
	<circle class="st3" cx="32" cy="136.8" r="3.3"/>
	<circle class="st3" cx="72.5" cy="146.8" r="3.3"/>
	<circle class="st3" cx="40.8" cy="136.5" r="3.3"/>
	<circle class="st3" cx="17.6" cy="126.9" r="3.3"/>
	<circle class="st3" cx="49.6" cy="136.3" r="3.3"/>
	<circle class="st3" cx="81.3" cy="146.5" r="3.3"/>
	<circle class="st3" cx="26.2" cy="127.6" r="3.3"/>
	<circle class="st3" cx="58.2" cy="136.9" r="3.3"/>
	<circle class="st3" cx="35.1" cy="127.3" r="3.3"/>
	<circle class="st3" cx="89.9" cy="147.2" r="3.3"/>
	<circle class="st3" cx="67.2" cy="136.7" r="3.3"/>
	<circle class="st3" cx="44.1" cy="127.1" r="3.3"/>
	<circle class="st3" cx="21" cy="117.5" r="3.3"/>
	<circle class="st3" cx="75.8" cy="137.5" r="3.3"/>
	<circle class="st3" cx="29.6" cy="118.3" r="3.3"/>
	<circle class="st3" cx="53.2" cy="126.8" r="3.3"/>
	<circle class="st3" cx="99.4" cy="146" r="3.3"/>
	<circle class="st3" cx="38.8" cy="118.1" r="3.3"/>
	<circle class="st3" cx="61.9" cy="127.7" r="3.3"/>
	<circle class="st3" cx="85" cy="137.3" r="3.3"/>
	<circle class="st3" cx="24.9" cy="108.3" r="3.3"/>
	<circle class="st3" cx="48" cy="117.9" r="3.3"/>
	<circle class="st3" cx="71.2" cy="127.5" r="3.3"/>
	<circle class="st3" cx="33.7" cy="109.3" r="3.3"/>
	<circle class="st3" cx="93.7" cy="138.2" r="3.3"/>
	<circle class="st3" cx="57.4" cy="117.7" r="3.3"/>
	<circle class="st3" cx="80" cy="128.5" r="3.3"/>
	<circle class="st3" cx="43.1" cy="109.2" r="3.3"/>
	<circle class="st3" cx="29.4" cy="99.4" r="3.3"/>
	<circle class="st3" cx="66.3" cy="118.8" r="3.3"/>
	<circle class="st3" cx="52.6" cy="109" r="3.3"/>
	<circle class="st3" cx="38.2" cy="100.6" r="3.3"/>
	<circle class="st3" cx="103.9" cy="136.8" r="3.3"/>
	<circle class="st3" cx="89.5" cy="128.4" r="3.3"/>
	<circle class="st3" cx="75.9" cy="118.6" r="3.3"/>
	<circle class="st3" cx="47.9" cy="100.5" r="3.3"/>
	<circle class="st3" cx="62.3" cy="108.9" r="3.3"/>
	<circle class="st3" cx="34.3" cy="90.8" r="3.3"/>
	<circle class="st3" cx="98.4" cy="129.7" r="3.3"/>
	<circle class="st3" cx="84.9" cy="120" r="3.3"/>
	<circle class="st3" cx="71.3" cy="110.2" r="3.3"/>
	<circle class="st3" cx="43.3" cy="92.2" r="3.3"/>
	<circle class="st3" cx="57.8" cy="100.5" r="3.3"/>
	<circle class="st3" cx="53.3" cy="92.2" r="3.3"/>
	<circle class="st3" cx="39.8" cy="82.4" r="3.3"/>
	<circle class="st3" cx="94.9" cy="120" r="3.3"/>
	<circle class="st3" cx="81.4" cy="110.2" r="3.3"/>
	<circle class="st3" cx="67.9" cy="100.4" r="3.3"/>
	<circle class="st3" cx="48.8" cy="84.1" r="3.3"/>
	<circle class="st3" cx="109.5" cy="128.2" r="3.3"/>
	<circle class="st3" cx="63.5" cy="92.3" r="3.3"/>
	<circle class="st3" cx="77" cy="102.1" r="3.3"/>
	<circle class="st3" cx="90.5" cy="111.9" r="3.3"/>
	<circle class="st3" cx="104" cy="121.7" r="3.3"/>
	<circle class="st3" cx="45.7" cy="74.4" r="3.3"/>
	<circle class="st3" cx="59.2" cy="84.2" r="3.3"/>
	<circle class="st3" cx="74" cy="92.4" r="3.3"/>
	<circle class="st3" cx="54.9" cy="76.3" r="3.3"/>
	<circle class="st3" cx="87.5" cy="102.3" r="3.3"/>
	<circle class="st3" cx="101" cy="112.1" r="3.3"/>
	<circle class="st3" cx="69.8" cy="84.5" r="3.3"/>
	<circle class="st3" cx="83.3" cy="94.4" r="3.3"/>
	<circle class="st3" cx="52.1" cy="66.8" r="3.3"/>
	<circle class="st3" cx="65.6" cy="76.7" r="3.3"/>
	<circle class="st3" cx="96.8" cy="104.3" r="3.3"/>
	<circle class="st3" cx="116" cy="120.3" r="3.3"/>
	<circle class="st3" cx="61.4" cy="68.9" r="3.3"/>
	<circle class="st3" cx="110.3" cy="114.2" r="3.3"/>
	<circle class="st3" cx="80.7" cy="84.9" r="3.3"/>
	<circle class="st3" cx="94.3" cy="94.9" r="3.3"/>
	<circle class="st3" cx="76.6" cy="77.2" r="3.3"/>
	<circle class="st3" cx="58.9" cy="59.5" r="3.3"/>
	<circle class="st3" cx="72.5" cy="69.5" r="3.3"/>
	<circle class="st3" cx="90.2" cy="87.2" r="3.3"/>
	<circle class="st3" cx="107.8" cy="104.9" r="3.3"/>
	<circle class="st3" cx="68.3" cy="61.9" r="3.3"/>
	<circle class="st3" cx="103.7" cy="97.3" r="3.3"/>
	<circle class="st3" cx="87.9" cy="77.9" r="3.3"/>
	<circle class="st3" cx="66.2" cy="52.6" r="3.3"/>
	<circle class="st3" cx="83.9" cy="70.3" r="3.3"/>
	<circle class="st3" cx="117.3" cy="107.5" r="3.3"/>
	<circle class="st3" cx="79.8" cy="62.8" r="3.3"/>
	<circle class="st3" cx="101.6" cy="88" r="3.3"/>
	<circle class="st3" cx="123.4" cy="113.2" r="3.3"/>
	<circle class="st3" cx="75.7" cy="55.4" r="3.3"/>
	<circle class="st3" cx="97.6" cy="80.6" r="3.3"/>
	<circle class="st3" cx="73.8" cy="46.2" r="3.3"/>
	<circle class="st3" cx="115.3" cy="98.3" r="3.3"/>
	<circle class="st3" cx="95.7" cy="71.4" r="3.3"/>
	<circle class="st3" cx="111.3" cy="90.9" r="3.3"/>
	<circle class="st3" cx="91.6" cy="64" r="3.3"/>
	<circle class="st3" cx="87.5" cy="56.6" r="3.3"/>
	<circle class="st3" cx="83.4" cy="49.3" r="3.3"/>
	<circle class="st3" cx="109.5" cy="81.9" r="3.3"/>
	<circle class="st3" cx="105.4" cy="74.5" r="3.3"/>
	<circle class="st3" cx="81.8" cy="40.2" r="3.3"/>
	<circle class="st3" cx="125" cy="101.5" r="3.3"/>
	<circle class="st3" cx="103.9" cy="65.5" r="3.3"/>
	<circle class="st3" cx="131.6" cy="107.1" r="3.3"/>
	<circle class="st3" cx="99.8" cy="58.2" r="3.3"/>
	<circle class="st3" cx="95.7" cy="51" r="3.3"/>
	<circle class="st3" cx="91.5" cy="43.7" r="3.3"/>
	<circle class="st3" cx="123.4" cy="92.5" r="3.3"/>
	<circle class="st3" cx="119.3" cy="85.3" r="3.3"/>
	<circle class="st3" cx="90.1" cy="34.8" r="3.3"/>
	<circle class="st3" cx="117.9" cy="76.3" r="3.3"/>
	<circle class="st3" cx="113.8" cy="69.1" r="3.3"/>
	<circle class="st3" cx="100" cy="38.6" r="3.3"/>
	<circle class="st3" cx="104.1" cy="45.8" r="3.3"/>
	<circle class="st3" cx="108.3" cy="53" r="3.3"/>
	<circle class="st3" cx="112.5" cy="60.2" r="3.3"/>
	<circle class="st3" cx="133.3" cy="96.3" r="3.3"/>
	<circle class="st3" cx="98.7" cy="29.8" r="3.3"/>
	<circle class="st3" cx="127.8" cy="80.3" r="3.3"/>
	<circle class="st3" cx="132.1" cy="87.5" r="3.3"/>
	<circle class="st3" cx="140.5" cy="101.9" r="3.3"/>
	<circle class="st3" cx="122.5" cy="64.3" r="3.3"/>
	<circle class="st3" cx="126.7" cy="71.6" r="3.3"/>
	<circle class="st3" cx="108.7" cy="34" r="3.3"/>
	<circle class="st3" cx="112.9" cy="41.2" r="3.3"/>
	<circle class="st3" cx="117.2" cy="48.4" r="3.3"/>
	<circle class="st3" cx="121.4" cy="55.6" r="3.3"/>
	<circle class="st3" cx="107.6" cy="25.3" r="3.3"/>
	<circle class="st3" cx="142" cy="92" r="3.3"/>
	<circle class="st3" cx="136.8" cy="76.1" r="3.3"/>
	<circle class="st3" cx="117.6" cy="29.9" r="3.3"/>
	<circle class="st3" cx="122" cy="37.2" r="3.3"/>
	<circle class="st3" cx="131.5" cy="60.3" r="3.3"/>
	<circle class="st3" cx="141.1" cy="83.4" r="3.3"/>
	<circle class="st3" cx="116.7" cy="21.3" r="3.3"/>
	<circle class="st3" cx="126.3" cy="44.4" r="3.3"/>
	<circle class="st3" cx="135.9" cy="67.5" r="3.3"/>
</g>
<g id="_x32_-H-RR-YET">
</g>
<g id="_x33_-DEVA-PART-S-">
	<circle class="st4" cx="130.7" cy="51.7" r="3.3"/>
	<circle class="st4" cx="149.9" cy="97.8" r="3.3"/>
	<circle class="st4" cx="126.8" cy="26.4" r="3.3"/>
	<circle class="st4" cx="131.3" cy="33.7" r="3.3"/>
	<circle class="st4" cx="126.1" cy="17.9" r="3.3"/>
	<circle class="st4" cx="135.7" cy="41" r="3.3"/>
	<circle class="st4" cx="140.9" cy="56.9" r="3.3"/>
	<circle class="st4" cx="146" cy="72.8" r="3.3"/>
	<circle class="st4" cx="151.2" cy="88.6" r="3.3"/>
	<circle class="st4" cx="140.2" cy="48.4" r="3.3"/>
	<circle class="st4" cx="145.4" cy="64.2" r="3.3"/>
	<circle class="st4" cx="150.5" cy="80.1" r="3.3"/>
	<circle class="st4" cx="136.2" cy="23.5" r="3.3"/>
	<circle class="st4" cx="135.6" cy="15" r="3.3"/>
	<circle class="st4" cx="140.8" cy="30.9" r="3.3"/>
	<circle class="st4" cx="145.4" cy="38.3" r="3.3"/>
	<circle class="st4" cx="159.7" cy="94.9" r="3.3"/>
	<circle class="st4" cx="150.4" cy="54.3" r="3.3"/>
	<circle class="st4" cx="150" cy="45.8" r="3.3"/>
	<circle class="st4" cx="155.6" cy="70.2" r="3.3"/>
	<circle class="st4" cx="145.8" cy="21.1" r="3.3"/>
	<circle class="st4" cx="155.1" cy="61.8" r="3.3"/>
	<circle class="st4" cx="145.4" cy="12.7" r="3.3"/>
	<circle class="st4" cx="160.6" cy="86.2" r="3.3"/>
	<circle class="st4" cx="150.4" cy="28.7" r="3.3"/>
	<circle class="st4" cx="160.2" cy="77.7" r="3.3"/>
	<circle class="st4" cx="155.1" cy="36.3" r="3.3"/>
	<circle class="st4" cx="160.2" cy="52.4" r="3.3"/>
	<circle class="st4" cx="155.5" cy="19.4" r="3.3"/>
	<circle class="st4" cx="159.9" cy="44" r="3.3"/>
	<circle class="st4" cx="155.2" cy="11" r="3.3"/>
	<circle class="st4" cx="165.2" cy="68.5" r="3.3"/>
	<circle class="st4" cx="160.2" cy="27.1" r="3.3"/>
	<circle class="st4" cx="165" cy="60.1" r="3.3"/>
	<circle class="st4" cx="169.8" cy="93.1" r="3.3"/>
	<circle class="st4" cx="165" cy="34.9" r="3.3"/>
	<circle class="st4" cx="170.3" cy="84.7" r="3.3"/>
	<circle class="st4" cx="170.1" cy="76.3" r="3.3"/>
	<circle class="st4" cx="165.2" cy="18.2" r="3.3"/>
	<circle class="st4" cx="165.1" cy="9.8" r="3.3"/>
	<circle class="st4" cx="170.1" cy="51.2" r="3.3"/>
	<circle class="st4" cx="169.9" cy="42.9" r="3.3"/>
	<circle class="st4" cx="170.1" cy="26.1" r="3.3"/>
	<circle class="st4" cx="175.1" cy="67.6" r="3.3"/>
	<circle class="st4" cx="175" cy="59.3" r="3.3"/>
	<circle class="st4" cx="175" cy="34.2" r="3.3"/>
	<circle class="st4" cx="175.1" cy="17.6" r="3.3"/>
</g>
<g id="_x34_-DP">
</g>
<g id="_x35_--Y--PART-">
	<circle class="st5" cx="175" cy="9.2" r="3.3"/>
	<circle class="st5" cx="180" cy="92.5" r="3.3"/>
	<circle class="st5" cx="180" cy="84.2" r="3.3"/>
	<circle class="st5" cx="180" cy="75.8" r="3.3"/>
	<circle class="st5" cx="180" cy="50.8" r="3.3"/>
	<circle class="st5" cx="180" cy="42.5" r="3.3"/>
	<circle class="st5" cx="180" cy="25.8" r="3.3"/>
	<circle class="st5" cx="185" cy="9.2" r="3.3"/>
	<circle class="st5" cx="184.9" cy="17.6" r="3.3"/>
	<circle class="st5" cx="185" cy="34.2" r="3.3"/>
	<circle class="st5" cx="185" cy="59.3" r="3.3"/>
	<circle class="st5" cx="184.9" cy="67.6" r="3.3"/>
	<circle class="st5" cx="189.9" cy="26.1" r="3.3"/>
	<circle class="st5" cx="190.1" cy="42.9" r="3.3"/>
	<circle class="st5" cx="189.9" cy="51.2" r="3.3"/>
	<circle class="st5" cx="194.9" cy="9.8" r="3.3"/>
	<circle class="st5" cx="194.8" cy="18.2" r="3.3"/>
	<circle class="st5" cx="189.9" cy="76.3" r="3.3"/>
	<circle class="st5" cx="189.7" cy="84.7" r="3.3"/>
	<circle class="st5" cx="195" cy="34.9" r="3.3"/>
	<circle class="st5" cx="190.2" cy="93.1" r="3.3"/>
	<circle class="st5" cx="195" cy="60.1" r="3.3"/>
	<circle class="st5" cx="199.8" cy="27.1" r="3.3"/>
	<circle class="st5" cx="194.8" cy="68.5" r="3.3"/>
	<circle class="st5" cx="204.8" cy="11" r="3.3"/>
	<circle class="st5" cx="200.1" cy="44" r="3.3"/>
	<circle class="st5" cx="204.5" cy="19.4" r="3.3"/>
	<circle class="st5" cx="199.8" cy="52.4" r="3.3"/>
	<circle class="st5" cx="204.9" cy="36.3" r="3.3"/>
	<circle class="st5" cx="199.8" cy="77.7" r="3.3"/>
	<circle class="st5" cx="209.6" cy="28.7" r="3.3"/>
	<circle class="st5" cx="199.4" cy="86.2" r="3.3"/>
	<circle class="st5" cx="214.6" cy="12.7" r="3.3"/>
	<circle class="st5" cx="204.9" cy="61.8" r="3.3"/>
	<circle class="st5" cx="214.2" cy="21.1" r="3.3"/>
	<circle class="st5" cx="204.4" cy="70.2" r="3.3"/>
	<circle class="st5" cx="210" cy="45.8" r="3.3"/>
	<circle class="st5" cx="209.6" cy="54.3" r="3.3"/>
	<circle class="st5" cx="200.3" cy="94.9" r="3.3"/>
	<circle class="st5" cx="214.6" cy="38.3" r="3.3"/>
	<circle class="st5" cx="219.2" cy="30.9" r="3.3"/>
	<circle class="st5" cx="224.4" cy="15" r="3.3"/>
	<circle class="st5" cx="223.8" cy="23.5" r="3.3"/>
	<circle class="st5" cx="209.5" cy="80.1" r="3.3"/>
	<circle class="st5" cx="214.6" cy="64.2" r="3.3"/>
	<circle class="st5" cx="219.8" cy="48.4" r="3.3"/>
	<circle class="st5" cx="208.8" cy="88.6" r="3.3"/>
	<circle class="st5" cx="214" cy="72.8" r="3.3"/>
	<circle class="st5" cx="219.1" cy="56.9" r="3.3"/>
	<circle class="st5" cx="224.3" cy="41" r="3.3"/>
	<circle class="st5" cx="233.9" cy="17.9" r="3.3"/>
	<circle class="st5" cx="228.7" cy="33.7" r="3.3"/>
	<circle class="st5" cx="233.2" cy="26.4" r="3.3"/>
	<circle class="st5" cx="210.1" cy="97.8" r="3.3"/>
	<circle class="st5" cx="229.3" cy="51.7" r="3.3"/>
	<circle class="st5" cx="224.1" cy="67.5" r="3.3"/>
	<circle class="st5" cx="233.7" cy="44.4" r="3.3"/>
	<circle class="st5" cx="243.3" cy="21.3" r="3.3"/>
	<circle class="st5" cx="218.9" cy="83.4" r="3.3"/>
</g>
<g id="_x36_-GELECEK-PART-S-">
	<circle class="st6" cx="228.5" cy="60.3" r="3.3"/>
	<circle class="st6" cx="238" cy="37.2" r="3.3"/>
	<circle class="st6" cx="242.4" cy="29.9" r="3.3"/>
	<circle class="st6" cx="223.2" cy="76.1" r="3.3"/>
	<circle class="st6" cx="218" cy="92" r="3.3"/>
	<circle class="st6" cx="252.4" cy="25.3" r="3.3"/>
	<circle class="st6" cx="238.6" cy="55.6" r="3.3"/>
	<circle class="st6" cx="242.8" cy="48.4" r="3.3"/>
	<circle class="st6" cx="247.1" cy="41.2" r="3.3"/>
	<circle class="st6" cx="251.3" cy="34" r="3.3"/>
	<circle class="st6" cx="233.3" cy="71.6" r="3.3"/>
	<circle class="st6" cx="237.5" cy="64.3" r="3.3"/>
	<circle class="st6" cx="219.5" cy="101.9" r="3.3"/>
	<circle class="st6" cx="227.9" cy="87.5" r="3.3"/>
	<circle class="st6" cx="232.1" cy="80.3" r="3.3"/>
	<circle class="st6" cx="261.3" cy="29.8" r="3.3"/>
	<circle class="st6" cx="226.7" cy="96.3" r="3.3"/>
	<circle class="st6" cx="247.5" cy="60.2" r="3.3"/>
	<circle class="st6" cx="251.7" cy="53" r="3.3"/>
	<ellipse transform="matrix(0.2298 -0.9732 0.9732 0.2298 152.516 284.3123)" class="st6" cx="255.9" cy="45.8" rx="3.3" ry="3.3"/>
	<circle class="st6" cx="260" cy="38.6" r="3.3"/>
	<circle class="st6" cx="246.2" cy="69.1" r="3.3"/>
	<circle class="st6" cx="242.1" cy="76.3" r="3.3"/>
</g>
<g id="_x37_-SAADET">
	<circle class="st7" cx="269.9" cy="34.8" r="3.3"/>
	<circle class="st7" cx="240.7" cy="85.3" r="3.3"/>
	<circle class="st7" cx="236.6" cy="92.5" r="3.3"/>
	<circle class="st7" cx="268.5" cy="43.7" r="3.3"/>
	<circle class="st7" cx="264.4" cy="51" r="3.3"/>
	<circle class="st7" cx="260.2" cy="58.2" r="3.3"/>
	<circle class="st7" cx="228.4" cy="107.1" r="3.3"/>
	<ellipse transform="matrix(0.1602 -0.9871 0.9871 0.1602 150.4468 307.849)" class="st7" cx="256.1" cy="65.5" rx="3.3" ry="3.3"/>
	<circle class="st7" cx="235" cy="101.5" r="3.3"/>
	<circle class="st7" cx="278.2" cy="40.2" r="3.3"/>
	
		<ellipse transform="matrix(0.1602 -0.9871 0.9871 0.1602 140.2247 313.8745)" class="st7" cx="254.6" cy="74.5" rx="3.3" ry="3.3"/>
	<circle class="st7" cx="250.5" cy="81.9" r="3.3"/>
	<circle class="st7" cx="276.5" cy="49.3" r="3.3"/>
	<circle class="st7" cx="272.5" cy="56.6" r="3.3"/>
	<circle class="st7" cx="268.4" cy="64" r="3.3"/>
	<circle class="st7" cx="248.7" cy="90.9" r="3.3"/>
	<circle class="st7" cx="264.3" cy="71.4" r="3.3"/>
	<circle class="st7" cx="244.7" cy="98.3" r="3.3"/>
	<circle class="st7" cx="286.2" cy="46.2" r="3.3"/>
	<circle class="st7" cx="262.5" cy="80.6" r="3.3"/>
	<circle class="st7" cx="284.3" cy="55.4" r="3.3"/>
	<circle class="st7" cx="236.6" cy="113.2" r="3.3"/>
	<ellipse transform="matrix(0.1602 -0.9871 0.9871 0.1602 130.0889 328.9812)" class="st7" cx="258.4" cy="88" rx="3.3" ry="3.3"/>
	<circle class="st7" cx="280.2" cy="62.8" r="3.3"/>
	<circle class="st7" cx="242.7" cy="107.5" r="3.3"/>
</g>
<g id="_x38_-AK-PART-">
	<circle class="st8" cx="276.1" cy="70.3" r="3.3"/>
	<circle class="st8" cx="293.9" cy="52.6" r="3.3"/>
	<circle class="st8" cx="272.1" cy="77.9" r="3.3"/>
	
		<ellipse transform="matrix(0.1602 -0.9871 0.9871 0.1602 119.1764 334.6751)" class="st8" cx="256.3" cy="97.3" rx="3.3" ry="3.3"/>
	<circle class="st8" cx="291.6" cy="61.9" r="3.3"/>
	<circle class="st8" cx="252.2" cy="104.9" r="3.3"/>
	<circle class="st8" cx="269.9" cy="87.2" r="3.3"/>
	<circle class="st8" cx="287.5" cy="69.5" r="3.3"/>
	<circle class="st8" cx="301.1" cy="59.5" r="3.3"/>
	<circle class="st8" cx="283.4" cy="77.2" r="3.3"/>
	<circle class="st8" cx="265.7" cy="94.9" r="3.3"/>
	<circle class="st8" cx="279.3" cy="84.9" r="3.3"/>
	<circle class="st8" cx="249.7" cy="114.2" r="3.3"/>
	<circle class="st8" cx="298.6" cy="68.9" r="3.3"/>
	<circle class="st8" cx="244" cy="120.3" r="3.3"/>
	<circle class="st8" cx="263.2" cy="104.3" r="3.3"/>
	<circle class="st8" cx="294.4" cy="76.7" r="3.3"/>
	<circle class="st8" cx="307.9" cy="66.8" r="3.3"/>
	<circle class="st8" cx="276.7" cy="94.4" r="3.3"/>
	<circle class="st8" cx="290.2" cy="84.5" r="3.3"/>
	<ellipse transform="matrix(0.1602 -0.9871 0.9871 0.1602 106.8489 349.8259)" class="st8" cx="259" cy="112.1" rx="3.3" ry="3.3"/>
	<circle class="st8" cx="272.5" cy="102.3" r="3.3"/>
	<circle class="st8" cx="305.1" cy="76.3" r="3.3"/>
	<circle class="st8" cx="286" cy="92.4" r="3.3"/>
	<circle class="st8" cx="300.8" cy="84.2" r="3.3"/>
	<circle class="st8" cx="314.3" cy="74.4" r="3.3"/>
	<ellipse transform="matrix(0.1602 -0.9871 0.9871 0.1602 94.9196 354.9046)" class="st8" cx="256" cy="121.7" rx="3.3" ry="3.3"/>
	<circle class="st8" cx="269.5" cy="111.9" r="3.3"/>
	<circle class="st8" cx="283" cy="102.1" r="3.3"/>
	<circle class="st8" cx="296.5" cy="92.3" r="3.3"/>
	<circle class="st8" cx="250.5" cy="128.2" r="3.3"/>
	<circle class="st8" cx="311.1" cy="84.1" r="3.3"/>
	<circle class="st8" cx="292.1" cy="100.4" r="3.3"/>
	<circle class="st8" cx="278.6" cy="110.2" r="3.3"/>
	<circle class="st8" cx="265.1" cy="120" r="3.3"/>
	<circle class="st8" cx="320.2" cy="82.4" r="3.3"/>
	<circle class="st8" cx="306.7" cy="92.2" r="3.3"/>
	<circle class="st8" cx="302.2" cy="100.5" r="3.3"/>
	<circle class="st8" cx="316.7" cy="92.2" r="3.3"/>
	<circle class="st8" cx="288.7" cy="110.2" r="3.3"/>
	<circle class="st8" cx="275.1" cy="120" r="3.3"/>
	<circle class="st8" cx="261.6" cy="129.7" r="3.3"/>
	<circle class="st8" cx="325.7" cy="90.8" r="3.3"/>
	<circle class="st8" cx="297.7" cy="108.9" r="3.3"/>
	<circle class="st8" cx="312.1" cy="100.5" r="3.3"/>
	<circle class="st8" cx="284.1" cy="118.6" r="3.3"/>
	<circle class="st8" cx="270.5" cy="128.4" r="3.3"/>
	
		<ellipse transform="matrix(0.1602 -0.9871 0.9871 0.1602 80.0353 367.6703)" class="st8" cx="256.1" cy="136.8" rx="3.3" ry="3.3"/>
	<circle class="st8" cx="321.8" cy="100.6" r="3.3"/>
	<circle class="st8" cx="307.4" cy="109" r="3.3"/>
	<circle class="st8" cx="293.7" cy="118.8" r="3.3"/>
	<circle class="st8" cx="330.6" cy="99.4" r="3.3"/>
	<circle class="st8" cx="316.9" cy="109.2" r="3.3"/>
	<circle class="st8" cx="280" cy="128.5" r="3.3"/>
	<circle class="st8" cx="302.6" cy="117.7" r="3.3"/>
	<circle class="st8" cx="266.3" cy="138.2" r="3.3"/>
	<circle class="st8" cx="326.3" cy="109.3" r="3.3"/>
	<circle class="st8" cx="288.8" cy="127.5" r="3.3"/>
	<circle class="st8" cx="312" cy="117.9" r="3.3"/>
	<circle class="st8" cx="335.1" cy="108.3" r="3.3"/>
	<circle class="st8" cx="275" cy="137.3" r="3.3"/>
	<circle class="st8" cx="298.1" cy="127.7" r="3.3"/>
	<circle class="st8" cx="321.2" cy="118.1" r="3.3"/>
	<circle class="st8" cx="260.6" cy="146" r="3.3"/>
	<circle class="st8" cx="306.8" cy="126.8" r="3.3"/>
	<circle class="st8" cx="330.4" cy="118.3" r="3.3"/>
	<circle class="st8" cx="284.1" cy="137.5" r="3.3"/>
	<circle class="st8" cx="339" cy="117.5" r="3.3"/>
	<circle class="st8" cx="315.9" cy="127.1" r="3.3"/>
	<circle class="st8" cx="292.8" cy="136.7" r="3.3"/>
	<circle class="st8" cx="270.1" cy="147.2" r="3.3"/>
	<circle class="st8" cx="324.9" cy="127.3" r="3.3"/>
	<circle class="st8" cx="301.8" cy="136.9" r="3.3"/>
	<circle class="st8" cx="333.8" cy="127.6" r="3.3"/>
	<circle class="st8" cx="278.6" cy="146.5" r="3.3"/>
	<circle class="st8" cx="310.4" cy="136.3" r="3.3"/>
	<circle class="st8" cx="342.4" cy="126.9" r="3.3"/>
	<circle class="st8" cx="319.2" cy="136.5" r="3.3"/>
	<circle class="st8" cx="287.5" cy="146.8" r="3.3"/>
	<circle class="st8" cx="328" cy="136.8" r="3.3"/>
	<circle class="st8" cx="296" cy="146.2" r="3.3"/>
	<circle class="st8" cx="264" cy="155.6" r="3.3"/>
</g>
<g id="_x39_-MP">
</g>
<g id="_x31_0-MHP">
	<circle class="st9" cx="336.7" cy="137" r="3.3"/>
	<circle class="st9" cx="304.7" cy="146.4" r="3.3"/>
	<circle class="st9" cx="345.2" cy="136.4" r="3.3"/>
	<circle class="st9" cx="313.2" cy="145.9" r="3.3"/>
	<circle class="st9" cx="272.9" cy="156.6" r="3.3"/>
	<circle class="st9" cx="321.9" cy="146.2" r="3.3"/>
	<circle class="st9" cx="281.4" cy="156.1" r="3.3"/>
	<circle class="st9" cx="330.5" cy="146.4" r="3.3"/>
	<circle class="st9" cx="290" cy="156.3" r="3.3"/>
	<circle class="st9" cx="339" cy="146.5" r="3.3"/>
	<circle class="st9" cx="298.4" cy="155.9" r="3.3"/>
	<circle class="st9" cx="347.5" cy="146.1" r="3.3"/>
	<circle class="st9" cx="306.9" cy="156.1" r="3.3"/>
	<circle class="st9" cx="315.4" cy="155.8" r="3.3"/>
	<circle class="st9" cx="323.8" cy="155.9" r="3.3"/>
	<circle class="st9" cx="266.3" cy="165.6" r="3.3"/>
	<circle class="st9" cx="332.3" cy="156.1" r="3.3"/>
	<circle class="st9" cx="340.8" cy="156.2" r="3.3"/>
	<circle class="st9" cx="274.8" cy="166.1" r="3.3"/>
	<circle class="st9" cx="349.1" cy="156" r="3.3"/>
	<circle class="st9" cx="283.2" cy="165.9" r="3.3"/>
	<circle class="st9" cx="291.6" cy="166" r="3.3"/>
	<circle class="st9" cx="300" cy="165.8" r="3.3"/>
	<circle class="st9" cx="308.4" cy="165.9" r="3.3"/>
	<circle class="st9" cx="316.8" cy="165.8" r="3.3"/>
	<circle class="st9" cx="325.1" cy="165.9" r="3.3"/>
	<circle class="st9" cx="333.5" cy="165.9" r="3.3"/>
	<circle class="st9" cx="341.9" cy="166" r="3.3"/>
	<circle class="st9" cx="350.2" cy="165.9" r="3.3"/>
	<circle class="st9" cx="267.4" cy="175.8" r="3.3"/>
	<circle class="st9" cx="275.7" cy="175.8" r="3.3"/>
	<circle class="st9" cx="284.1" cy="175.8" r="3.3"/>
	<circle class="st9" cx="292.4" cy="175.8" r="3.3"/>
	<circle class="st9" cx="300.8" cy="175.8" r="3.3"/>
</g>
<g id="_x31_1-H-DA-PAR">
	<circle class="st10" cx="309.1" cy="175.8" r="3.3"/>
	<circle class="st10" cx="317.4" cy="175.8" r="3.3"/>
	<circle class="st10" cx="325.8" cy="175.8" r="3.3"/>
	<circle class="st10" cx="334.1" cy="175.8" r="3.3"/>
	<circle class="st10" cx="342.5" cy="175.8" r="3.3"/>
	<circle class="st10" cx="350.8" cy="175.8" r="3.3"/>
</g>
</svg>
